<?xml version="1.0" standalone="no"?>
<!DOCTYPE svg PUBLIC "-//W3C//DTD SVG 1.1//EN" "http://www.w3.org/Graphics/SVG/1.1/DTD/svg11.dtd" >
<svg xmlns="http://www.w3.org/2000/svg">
<metadata></metadata>
<defs>
<font id="omega_ctitalic" horiz-adv-x="1146" >
<font-face units-per-em="2048" ascent="1567" descent="-481" />
<missing-glyph horiz-adv-x="512" />
<glyph unicode="&#xfb01;" horiz-adv-x="1048" d="M90 786l19 136h165l27 192q10 76 29.5 123t44.5 82q47 70 125 107.5t172 37.5q68 0 129 -22.5t107 -62.5t73 -95t27 -119v-18q0 -10 -4 -33h-144q2 10 3 19.5t1 19.5q0 76 -57 126t-139 50q-57 0 -103.5 -25.5t-75.5 -66.5q-16 -25 -28 -61.5t-21 -90.5l-22 -163h225 l-18 -136h-228l-108 -786h-144l109 786h-164zM709 0l127 922h143l-127 -922h-143z" />
<glyph unicode="&#xfb02;" horiz-adv-x="1046" d="M90 786l19 136h165l27 192q10 76 29.5 123t44.5 82q47 70 125 107.5t172 37.5q68 0 129 -22.5t107 -62.5t73 -95t27 -119v-18q0 -10 -4 -33l-152 -1114h-143l151 1114q2 10 3 19.5t1 19.5q0 76 -57 126t-139 50q-57 0 -103.5 -25.5t-75.5 -66.5q-16 -25 -28 -61.5 t-21 -90.5l-22 -163h225l-18 -136h-228l-108 -786h-144l109 786h-164z" />
<glyph horiz-adv-x="2048" />
<glyph horiz-adv-x="2048" />
<glyph unicode="&#xd;" horiz-adv-x="512" />
<glyph unicode=" "  horiz-adv-x="512" />
<glyph unicode="&#x09;" horiz-adv-x="512" />
<glyph unicode="&#xa0;" horiz-adv-x="512" />
<glyph unicode="!" horiz-adv-x="604" d="M131 92q0 51 36 87t87 36t87 -36t36 -87t-36 -87t-87 -36t-87 36t-36 87zM238 481l133 953h143l-133 -953h-143z" />
<glyph unicode="&#x22;" horiz-adv-x="763" d="M166 922l70 512h143l-70 -512h-143zM565 922l70 512h143l-69 -512h-144z" />
<glyph unicode="#" horiz-adv-x="1345" d="M63 416l39 135h232l94 332h-262l39 135h262l119 416h149l-119 -416h332l119 416h150l-117 -416h231l-39 -135h-231l-94 -332h262l-39 -135h-262l-119 -416h-150l117 416h-332l-116 -416h-150l117 416h-232zM483 551h332l94 332h-331z" />
<glyph unicode="$" d="M135 297l141 18q16 -94 83 -152.5t167 -58.5q61 0 114.5 24t93.5 64.5t63.5 94t23.5 114.5q0 55 -17.5 99.5t-43.5 72.5q-37 41 -88 65t-105.5 46.5t-109 49t-99.5 73.5q-37 39 -66.5 100.5t-29.5 139.5q0 82 30 153.5t81 126.5t118.5 90t145.5 43l22 158h144l-25 -166 q111 -27 187.5 -106.5t99.5 -190.5l-143 -29q-14 90 -77 146.5t-159 56.5q-53 0 -104.5 -19.5t-90 -56t-62 -87t-23.5 -111.5q0 -43 12 -81t37 -65q37 -41 93 -66.5t117.5 -51t120 -57.5t101.5 -87q33 -41 55.5 -103.5t22.5 -140.5q0 -82 -30 -155.5t-82 -132t-123 -96 t-155 -46.5l-20 -157h-143l22 164q-121 27 -200.5 111.5t-98.5 205.5z" />
<glyph unicode="%" horiz-adv-x="1937" d="M156 1057q0 82 30.5 155.5t85 130t128 89t159.5 32.5q78 0 143.5 -27.5t113.5 -76.5t76 -115.5t28 -142.5q0 -82 -31 -156t-85 -130t-128 -89t-160 -33q-78 0 -143.5 28t-113.5 77t-75.5 115.5t-27.5 142.5zM299 1057q0 -47 15.5 -88t44 -72t69.5 -49.5t92 -18.5 q55 0 102.5 22.5t81 60.5t53 87.5t19.5 102.5q0 45 -15.5 87t-44 72.5t-69.5 49t-92 18.5q-55 0 -102 -22.5t-81 -60.5t-53.5 -87t-19.5 -102zM406 0l999 1434h174l-999 -1434h-174zM1067 332q0 82 30.5 155.5t85 130t128 89t159.5 32.5q78 0 143.5 -27.5t114 -76.5 t76 -115.5t27.5 -142.5q0 -82 -31 -156t-85 -130t-128 -89t-160 -33q-78 0 -143 28t-113.5 77t-76 115.5t-27.5 142.5zM1210 332q0 -47 15.5 -88t44 -72t69.5 -49.5t93 -18.5q55 0 102 23t81 60.5t53.5 87t19.5 102.5q0 45 -15.5 87t-44.5 72.5t-69.5 49t-92.5 18.5 q-55 0 -102 -22.5t-81 -60.5t-53.5 -87t-19.5 -102z" />
<glyph unicode="&#x26;" horiz-adv-x="1222" d="M80 362q0 115 58.5 213.5t150.5 159.5l108 72l-47 74q-29 45 -48 79.5t-29.5 63.5t-14.5 54.5t-4 54.5q0 68 25.5 128t70.5 105t106.5 71.5t131.5 26.5q68 0 125 -24.5t100 -66.5t67.5 -97t24.5 -119q0 -49 -10 -90t-34.5 -80t-65.5 -77t-103 -79l-96 -63l293 -436 l295 196l-25 -192l-190 -125l141 -211h-174l-88 131l-100 -68q-86 -57 -148.5 -75.5t-126.5 -18.5q-82 0 -153.5 31t-125 84t-84 125t-30.5 153zM223 362q0 -55 18.5 -102t51.5 -82t79 -54.5t101 -19.5q49 0 94 19.5t95 54.5l106 74l-291 436l-108 -72 q-63 -41 -104.5 -108.5t-41.5 -145.5zM397 1130q0 -37 16.5 -74.5t53.5 -92.5l49 -74l88 57q47 31 78 58.5t48.5 53t24.5 51.5t7 54q0 70 -48 118t-124 48q-41 0 -76 -16.5t-61.5 -43t-41 -63.5t-14.5 -76z" />
<glyph unicode="'" horiz-adv-x="364" d="M166 922l70 512h143l-70 -512h-143z" />
<glyph unicode="(" horiz-adv-x="811" d="M172 352q0 268 111 520q53 121 126.5 227.5t170.5 203.5q98 98 208 172l76 -123q-49 -35 -95 -72t-89 -80q-170 -170 -266 -385q-98 -225 -99 -463q0 -217 77 -409.5t222 -339.5l9 -9q6 -6 14 -12l-96 -108l-29 28q-166 166 -253 385t-87 465z" />
<glyph unicode=")" horiz-adv-x="811" d="M-53 -401q49 35 95 71.5t89 79.5q170 170 266 385q98 223 99 463q0 217 -77 409.5t-222 340.5l-11 8q-4 6 -12 12l96 109l29 -29q166 -166 253 -385t87 -465q0 -268 -111 -520q-102 -236 -297 -430q-98 -98 -208 -172z" />
<glyph unicode="*" horiz-adv-x="1165" d="M182 958l21 144l334 -4l-136 311l134 55l120 -295l203 295l119 -82l-205 -284l350 4l-20 -144l-359 3l136 -308l-131 -57l-121 293l-201 -293l-117 84l201 281z" />
<glyph unicode="+" d="M156 436l18 135h338l47 351h143l-49 -351h338l-18 -135h-338l-47 -348h-144l50 348h-338z" />
<glyph unicode="," horiz-adv-x="548" d="M-61 -256l313 512h168l-316 -512h-165z" />
<glyph unicode="-" horiz-adv-x="915" d="M111 492l18 135h676l-19 -135h-675z" />
<glyph unicode="." horiz-adv-x="548" d="M172 92q0 51 36 87t87 36t87 -36t36 -87t-36 -87t-87 -36t-87 36t-36 87z" />
<glyph unicode="/" horiz-adv-x="1083" d="M0 0l915 1434h168l-915 -1434h-168z" />
<glyph unicode="0" d="M109 410q0 16 1 32.5t3 32.5q6 47 13 106.5t17 137.5q14 104 24.5 177t20.5 132q16 96 59.5 177t106 138.5t143.5 89t173 31.5q94 0 175 -32.5t140 -91t93 -139.5t34 -177q0 -16 -1 -32.5t-3 -33.5q-6 -47 -13.5 -106t-17.5 -137q-14 -104 -24.5 -177t-20.5 -132 q-16 -96 -59 -177.5t-105.5 -138.5t-143.5 -89t-173 -32q-94 0 -175 33t-140.5 92.5t-93 139.5t-33.5 176zM252 410q0 -66 22.5 -122.5t61.5 -97t93.5 -63.5t117.5 -23q66 0 123 23t103 62.5t76 95t40 121.5q10 59 20.5 131.5t24.5 177.5q10 78 17 137t14 106q4 23 4 35v31 q0 66 -22.5 122t-61.5 97t-93.5 63.5t-117.5 22.5q-66 0 -123 -22.5t-103.5 -62.5t-76 -95t-39.5 -121q-10 -59 -20.5 -132t-24.5 -177q-10 -78 -17.5 -137.5t-13.5 -106.5q-4 -23 -4 -37v-28z" />
<glyph unicode="1" d="M109 0l18 135h387l148 1071l-353 -217l25 172l510 314l-187 -1340h363l-19 -135h-892z" />
<glyph unicode="2" d="M68 0l739 793q51 55 86 111.5t35 139.5q0 61 -21.5 112.5t-58.5 90.5t-87 60.5t-108 21.5q-59 0 -113.5 -22.5t-97.5 -62.5t-71.5 -94t-34.5 -120h-143q6 94 44.5 173t101 137.5t142.5 91t168 32.5q86 0 163 -31.5t134.5 -87t91 -131t33.5 -161.5q0 -53 -8 -96.5 t-26.5 -84.5t-47 -80.5t-69.5 -82.5l-529 -574h610l-18 -135h-915z" />
<glyph unicode="3" d="M117 383v25h143v-25q0 -59 20.5 -110.5t56.5 -88.5t85 -58.5t108 -21.5q66 0 123.5 27t100.5 73t67.5 104.5t24.5 123.5q0 66 -25.5 120t-68.5 91q-35 29 -81 46.5t-136 17.5h-37l18 135h88q82 0 128 18.5t81 50.5q39 37 61.5 86.5t22.5 106.5q0 98 -59.5 161.5 t-155.5 63.5q-49 0 -94 -19.5t-80 -53t-56.5 -78.5t-25.5 -95h-143q4 76 36.5 145.5t87 122t125 83t150.5 30.5q76 0 141.5 -27.5t113.5 -76.5t75.5 -114.5t27.5 -141.5q0 -113 -62.5 -206t-160.5 -140q78 -51 125 -136t47 -190q0 -88 -34.5 -174t-100.5 -152t-151 -101.5 t-173 -35.5q-92 0 -167.5 32t-131 88t-85 132t-29.5 162z" />
<glyph unicode="4" d="M-39 184l1124 1291l-161 -1156h200l-18 -135h-201l-24 -184h-144l25 184h-801zM248 319h532l105 742z" />
<glyph unicode="5" d="M86 434v23h143v-23q0 -72 23.5 -131t65.5 -104t100.5 -70t128.5 -25q76 0 144.5 31t119.5 84t81 123t30 147q0 70 -24 130.5t-65.5 104.5t-100 68.5t-128.5 24.5q-92 0 -172 -45t-133 -119l-109 86l3 2l249 693h615l-19 -136h-493l-144 -401q47 27 100.5 41t112.5 14 q94 0 176 -35.5t143.5 -99t96.5 -147.5t35 -181q0 -102 -41 -196t-111.5 -166t-165 -115t-200.5 -43q-98 0 -182 36t-145.5 99.5t-97.5 147.5t-36 182z" />
<glyph unicode="6" d="M70 432q0 98 38.5 187.5t116.5 195.5l453 619h178l-360 -498q53 16 110 16q94 0 175 -36.5t140.5 -99t93.5 -147.5t34 -182q0 -104 -42 -197t-113 -165t-165 -114t-197 -42q-98 0 -182 36t-146.5 98.5t-98 146.5t-35.5 182zM213 432q0 -70 23.5 -130t65.5 -104t100.5 -69 t129.5 -25q74 0 141.5 32t119 85t82 121.5t30.5 144.5q0 70 -23.5 130.5t-65.5 104.5t-101.5 69.5t-128.5 25.5q-74 0 -141.5 -31.5t-119 -85t-82 -123t-30.5 -145.5z" />
<glyph unicode="7" d="M176 0l768 1298h-729l18 136h957l-850 -1434h-164z" />
<glyph unicode="8" d="M119 383q0 70 21.5 134.5t59.5 118.5t90 96t113 67q-55 47 -86.5 115.5t-31.5 150.5q0 80 32.5 152.5t87 127t127 87t152.5 32.5q76 0 141.5 -27.5t113.5 -76.5t75.5 -114.5t27.5 -141.5q0 -113 -61 -203t-156 -139q76 -53 121 -139t45 -191q0 -88 -35.5 -173 t-101.5 -150q-66 -66 -149.5 -103t-172.5 -37q-86 0 -161.5 32t-132 88t-88 132t-31.5 162zM262 383q0 -59 20.5 -110.5t57.5 -88.5t86 -58.5t106 -21.5q66 0 123.5 27t100.5 73t67.5 104.5t24.5 123.5q0 59 -20.5 109.5t-57.5 87.5t-86 57.5t-106 20.5q-66 0 -123.5 -27 t-100.5 -71t-67.5 -103.5t-24.5 -122.5zM428 1065q0 -96 62.5 -159.5t156.5 -63.5q51 0 96 20.5t80 56t55.5 84t20.5 101.5q0 98 -59.5 161.5t-155.5 63.5q-51 0 -97 -21.5t-82 -57.5t-56.5 -84t-20.5 -101z" />
<glyph unicode="9" d="M131 946q0 104 42 197.5t112.5 165t165 113.5t196.5 42q98 0 182 -35.5t146.5 -98t98.5 -146.5t36 -183q0 -98 -39 -187t-117 -196l-452 -618h-178l360 498q-53 -16 -111 -17q-94 0 -175 37t-140 99.5t-93 147.5t-34 181zM274 946q0 -70 24 -130t66 -104t100 -70t130 -26 q74 0 141.5 32t118.5 85t82 123t31 145q0 70 -23.5 130.5t-65.5 104.5t-101.5 68.5t-129.5 24.5q-74 0 -141.5 -31.5t-118.5 -85t-82 -122t-31 -144.5z" />
<glyph unicode=":" horiz-adv-x="548" d="M172 92q0 51 36 87t87 36t87 -36t36 -87t-36 -87t-87 -36t-87 36t-36 87zM274 829q0 51 36 87t87 36t87 -35.5t36 -87.5q0 -51 -35.5 -86.5t-87.5 -35.5q-51 0 -87 35.5t-36 86.5z" />
<glyph unicode=";" horiz-adv-x="548" d="M-61 -256l313 512h168l-316 -512h-165zM274 829q0 51 36 87t87 36t87 -35.5t36 -87.5q0 -51 -35.5 -86.5t-87.5 -35.5q-51 0 -87 35.5t-36 86.5z" />
<glyph unicode="&#x3c;" d="M137 502l891 463l-22 -177l-576 -296l492 -297l-23 -156z" />
<glyph unicode="=" d="M55 236l19 135h962l-18 -135h-963zM111 637l18 135h963l-19 -135h-962z" />
<glyph unicode="&#x3e;" d="M119 39l22 176l576 297l-492 297l23 156l762 -463z" />
<glyph unicode="?" horiz-adv-x="825" d="M166 702q0 92 43 151.5t102 94.5q33 18 69 31.5t71.5 26t68.5 25.5t62 32q31 20 49 50t18 69q0 27 -9 52.5t-27.5 45.5t-44 33.5t-58.5 13.5q-72 0 -116 -47t-50 -111h-143q4 59 29.5 112.5t67.5 93.5t97.5 63.5t118.5 23.5q61 0 112.5 -23.5t88.5 -61.5t57.5 -87 t20.5 -100q0 -92 -40 -147.5t-87 -88.5q-43 -29 -89.5 -46t-89.5 -31.5t-79.5 -32t-63.5 -45.5q-16 -18 -25.5 -39t-9.5 -49q0 -55 36 -90t87 -35q53 0 93 34.5t53 86.5h145q-8 -53 -34.5 -99.5t-66.5 -81t-89.5 -55t-104.5 -20.5q-53 0 -100 19t-83 53t-57.5 80t-21.5 99z M227 92q0 51 36 87t87 36t87 -36t36 -87t-36 -87t-87 -36t-87 36t-36 87z" />
<glyph unicode="@" horiz-adv-x="2129" d="M166 420q0 190 76.5 362t206 304.5t301.5 210t362 77.5q174 0 326.5 -61.5t266.5 -169t180.5 -253t66.5 -310.5q0 -129 -35 -231.5t-91.5 -173.5t-131 -107.5t-154.5 -36.5q-102 0 -162.5 48t-83.5 105q-57 -70 -145 -111.5t-182 -41.5q-88 0 -163 31.5t-129 88t-85 132 t-31 166.5q0 92 37 176t100.5 148.5t146.5 102t175 37.5q96 0 179 -41t136 -114l19 125h143l-68 -480q-2 -12 -6 -42.5t-4 -49.5q0 -76 37 -110.5t96 -34.5q57 0 105.5 31.5t82.5 87t53 130t19 160.5q0 141 -54 262t-149.5 210.5t-222.5 140.5t-272 51q-164 0 -309.5 -67.5 t-255 -181t-174 -261t-64.5 -309.5q0 -150 52.5 -278t145.5 -222t220 -148.5t279 -54.5q111 0 213 31t192 88l72 -117q-106 -66 -227 -101.5t-250 -35.5q-178 0 -332 64.5t-266.5 177.5t-177 265.5t-64.5 330.5zM702 449q0 -61 20.5 -113.5t56.5 -89.5t86 -58.5t110 -21.5 q66 0 123 27.5t100 73.5t68.5 106t25.5 123q0 61 -20.5 113.5t-56 89t-86 58t-109.5 21.5q-66 0 -123 -27.5t-100 -73.5t-69 -105.5t-26 -122.5z" />
<glyph unicode="A" horiz-adv-x="1433" d="M-74 0l959 1475l479 -1475h-154l-102 315h-805l-205 -315h-172zM391 451h674l-223 694z" />
<glyph unicode="B" horiz-adv-x="1169" d="M90 0l201 1434h405q72 0 117 -6.5t80 -18.5q100 -35 158.5 -126t58.5 -210q0 -115 -57.5 -203t-147.5 -133q78 -47 125 -127t47 -184q0 -106 -46 -197.5t-128 -150.5q-53 -37 -120.5 -57.5t-170.5 -20.5h-522zM252 135h360q86 0 136.5 17.5t85.5 48.5q47 41 73.5 99 t26.5 126q0 61 -24.5 111.5t-67.5 85.5q-29 23 -71 35t-114 12h-331zM346 805h322q78 0 126 18.5t83 50.5q41 37 65.5 88.5t24.5 110.5q0 63 -26 113.5t-73 79.5q-27 16 -62.5 24t-100.5 8h-289z" />
<glyph unicode="C" horiz-adv-x="1533" d="M131 674q0 162 64 303q31 72 74.5 134.5t97.5 117.5q113 115 256 175t295 60q145 0 273 -53t226 -151q33 -33 59.5 -69t49.5 -77l-119 -76q-18 35 -41 68t-51 61q-78 78 -179.5 120t-217.5 42q-123 0 -240 -51t-209 -143q-94 -92 -144.5 -215t-50.5 -246 q0 -117 41 -223.5t119 -184.5t179.5 -120t217.5 -42q123 0 240 51.5t209 143.5q18 16 33.5 35.5t32.5 40.5l110 -84q-35 -47 -74 -86q-113 -115 -256 -175.5t-295 -60.5q-145 0 -274 52.5t-227 150.5t-148.5 228t-50.5 274z" />
<glyph unicode="D" horiz-adv-x="1382" d="M90 0l199 1434h321q92 0 155.5 -8.5t119.5 -28.5q100 -37 181 -100.5t138.5 -147.5t88 -184.5t30.5 -206.5q0 -117 -36 -226.5t-100.5 -204t-155.5 -167t-200 -113.5q-63 -25 -136.5 -36t-176.5 -11h-428zM252 135h272q88 0 147.5 8.5t112.5 28.5q86 35 159 96.5t125 139 t82 168t30 182.5q0 82 -21.5 158.5t-62.5 142t-100.5 117t-135.5 81.5q-49 20 -106.5 30.5t-143.5 10.5h-196z" />
<glyph unicode="E" d="M90 0l199 1434h870l-18 -136h-727l-72 -512h709l-19 -135h-708l-72 -516h727l-18 -135h-871z" />
<glyph unicode="F" horiz-adv-x="1118" d="M90 0l199 1434h870l-18 -136h-727l-72 -512h709l-19 -135h-708l-91 -651h-143z" />
<glyph unicode="G" horiz-adv-x="1677" d="M131 674q0 162 64 303q31 72 74.5 134.5t97.5 117.5q113 115 256 175t295 60q94 0 184 -24.5t169 -69.5t143.5 -109.5t111.5 -146.5l-119 -76q-70 135 -200.5 213t-288.5 78q-123 0 -240 -51t-209 -143q-94 -92 -144.5 -215t-50.5 -246q0 -117 41 -223.5t119 -184.5 t179.5 -120t217.5 -42q123 0 240 50.5t211 142.5q72 70 118 154t60 182h-596l19 135h735q0 -76 -15.5 -158t-48.5 -153q-31 -72 -74.5 -134.5t-97.5 -117.5q-113 -115 -256 -175.5t-295 -60.5q-145 0 -274 52.5t-227 150.5t-148.5 228t-50.5 274z" />
<glyph unicode="H" horiz-adv-x="1402" d="M90 0l199 1434h143l-90 -648h799l90 648h143l-198 -1434h-144l90 651h-798l-91 -651h-143z" />
<glyph unicode="I" horiz-adv-x="460" d="M90 0l199 1434h143l-199 -1434h-143z" />
<glyph unicode="J" horiz-adv-x="692" d="M-74 154l135 43q14 -41 48 -67t81 -26q39 0 73 14.5t56 45.5q14 20 25.5 52t22.5 106l153 1112h144l-154 -1115q-12 -86 -28.5 -136t-35.5 -79q-41 -63 -107.5 -99t-148.5 -36q-94 0 -164.5 50.5t-99.5 134.5z" />
<glyph unicode="K" horiz-adv-x="1171" d="M90 0l199 1434h143l-90 -641l674 641h209l-733 -697l589 -737h-184l-565 707l-99 -707h-143z" />
<glyph unicode="L" horiz-adv-x="1048" d="M90 0l199 1434h143l-180 -1299h727l-18 -135h-871z" />
<glyph unicode="M" horiz-adv-x="1824" d="M-33 0l613 1475l301 -1139l630 1139l203 -1475h-143l-144 1028l-596 -1069l-282 1069l-426 -1028h-156z" />
<glyph unicode="N" horiz-adv-x="1409" d="M90 0l205 1475l788 -1133l154 1092h143l-204 -1475l-791 1135l-152 -1094h-143z" />
<glyph unicode="O" horiz-adv-x="1677" d="M131 674q0 162 64 303q31 72 74.5 134.5t97.5 117.5q113 115 256 175t295 60q145 0 274 -52t227 -150t148.5 -228.5t50.5 -273.5q0 -162 -64 -303q-31 -72 -74.5 -134.5t-97.5 -117.5q-113 -115 -256 -175.5t-295 -60.5q-145 0 -274 52.5t-227 150.5t-148.5 228 t-50.5 274zM274 674q0 -117 41 -223.5t119 -184.5t179.5 -120t217.5 -42q123 0 240 51.5t209 143.5q94 92 144.5 215t50.5 246q0 117 -41 223.5t-119 183.5q-78 78 -179.5 120t-217.5 42q-123 0 -240 -51t-209 -143q-94 -92 -144.5 -215t-50.5 -246z" />
<glyph unicode="P" horiz-adv-x="1165" d="M90 0l201 1434h452q92 0 153.5 -17.5t109.5 -50.5q76 -51 119.5 -133t43.5 -184q0 -123 -63.5 -225.5t-167.5 -155.5q-45 -23 -98.5 -34t-139.5 -11h-381l-86 -623h-143zM340 758h360q72 0 114 9t75 30q61 39 99 106.5t38 145.5q0 59 -24.5 110t-65.5 86q-31 25 -74 39 t-119 14h-327z" />
<glyph unicode="Q" horiz-adv-x="1677" d="M131 674q0 162 64 303q31 72 74.5 134.5t97.5 117.5q113 115 256 175t295 60q145 0 274 -52t227 -150t148.5 -228.5t50.5 -273.5q0 -162 -64 -303q-27 -61 -62.5 -115.5t-78.5 -103.5l148 -115l-23 -164l-231 178q-104 -82 -226.5 -125t-249.5 -43q-145 0 -274 52.5 t-227 150.5t-148.5 228t-50.5 274zM274 674q0 -117 41 -223.5t119 -184.5t179.5 -120t217.5 -42q96 0 188.5 31t174.5 90l-199 158l23 162l285 -223q84 92 128 206.5t44 231.5t-41 223.5t-119 183.5q-78 78 -179.5 120t-217.5 42q-123 0 -240 -51t-209 -143 q-94 -92 -144.5 -215t-50.5 -246z" />
<glyph unicode="R" horiz-adv-x="1198" d="M90 0l201 1434h442q96 0 156.5 -16.5t107.5 -45.5q78 -51 125 -135t47 -188q0 -109 -52 -203t-138 -154q-51 -35 -114.5 -52t-168.5 -17h-82l394 -623h-168l-394 623h-127l-86 -623h-143zM340 758h360q78 0 127.5 12t83.5 41q51 41 83 104.5t32 133.5q0 59 -24.5 110 t-65.5 86q-31 25 -76 39t-127 14h-317z" />
<glyph unicode="S" horiz-adv-x="1017" d="M70 297l141 18q16 -94 82.5 -152.5t167.5 -58.5q61 0 114.5 24t93.5 64.5t63.5 94t23.5 114.5q0 55 -17.5 99.5t-44.5 72.5q-39 39 -89 64t-105.5 46.5t-108.5 49t-98 74.5q-37 39 -66.5 100.5t-29.5 139.5q0 88 34.5 164.5t93 133t135.5 88t161 31.5q70 0 133 -23.5 t113.5 -64.5t85 -97t46.5 -124l-143 -29q-14 90 -76.5 146.5t-158.5 56.5q-53 0 -104.5 -19.5t-90.5 -56t-62.5 -87t-23.5 -111.5q0 -43 14 -81t39 -65q37 -41 93.5 -66.5t116 -51t117.5 -57.5t101 -87q33 -41 55.5 -103.5t22.5 -140.5q0 -88 -34 -166.5t-92 -138 t-139 -94.5t-173 -35q-78 0 -143.5 24.5t-116.5 68.5t-85 103.5t-46 131.5z" />
<glyph unicode="T" horiz-adv-x="1040" d="M113 1298l18 136h1036l-18 -136h-447l-180 -1298h-143l180 1298h-446z" />
<glyph unicode="U" horiz-adv-x="1325" d="M158 451q0 16 3 46.5t7 61.5l121 875h143l-121 -883q-4 -29 -7 -56.5t-3 -43.5q0 -76 24.5 -139.5t68.5 -109.5t105.5 -72t137.5 -26q109 0 195 57.5t133 145.5q16 33 30.5 71t22.5 91l135 965h143l-133 -953q-10 -66 -22.5 -115t-32.5 -92q-66 -141 -190.5 -223 t-284.5 -82q-102 0 -189.5 36t-151 100.5t-99 152.5t-35.5 193z" />
<glyph unicode="V" horiz-adv-x="1263" d="M117 1434h149l342 -1117l649 1117h168l-858 -1475z" />
<glyph unicode="W" horiz-adv-x="1890" d="M111 1434h147l262 -1065l563 1106l244 -1106l559 1065h160l-774 -1475l-242 1100l-557 -1100z" />
<glyph unicode="X" horiz-adv-x="1122" d="M-61 0l563 739l-344 695h159l281 -568l432 568h180l-540 -711l360 -723h-162l-297 596l-452 -596h-180z" />
<glyph unicode="Y" horiz-adv-x="1089" d="M80 1434h162l315 -603l479 603h185l-598 -754l-95 -680h-143l92 680z" />
<glyph unicode="Z" horiz-adv-x="1118" d="M-53 0l948 1298h-684l18 136h942l-950 -1299h807l-18 -135h-1063z" />
<glyph unicode="[" horiz-adv-x="811" d="M164 -481l270 1915h389l-18 -136h-246l-231 -1644h245l-20 -135h-389z" />
<glyph unicode="\" horiz-adv-x="647" d="M0 1434h150l497 -1434h-149z" />
<glyph unicode="]" horiz-adv-x="808" d="M-12 -481l20 135h244l231 1644h-245l18 136h389l-270 -1915h-387z" />
<glyph unicode="^" d="M258 737l461 738l252 -738h-152l-139 406l-252 -406h-170z" />
<glyph unicode="_" horiz-adv-x="1062" d="M41 -135l18 135h963l-18 -135h-963z" />
<glyph unicode="`" horiz-adv-x="436" d="M92 1434h152l100 -318h-149z" />
<glyph unicode="a" horiz-adv-x="1224" d="M90 432q0 106 42 200.5t112.5 165t164 112.5t197.5 42q123 0 215 -52t148 -140l22 162h144l-129 -922h-144l17 106q-61 -57 -144.5 -97t-191.5 -40q-100 0 -183.5 36t-143.5 98.5t-93 146.5t-33 182zM233 434q0 -72 24 -131t66 -104t100 -70t130 -25q76 0 143.5 30 t118.5 82t81 122.5t30 150.5q0 70 -23.5 130.5t-65.5 104.5t-100.5 68.5t-130.5 24.5q-76 0 -143.5 -30.5t-118.5 -83t-81 -122t-30 -147.5z" />
<glyph unicode="b" horiz-adv-x="1224" d="M90 0l199 1434h143l-86 -619q61 57 144 97t192 40q100 0 183 -35.5t142.5 -98t93.5 -146.5t34 -183q0 -106 -42 -200t-113 -165t-164 -113t-198 -42q-123 0 -215 52.5t-147 140.5l-23 -162h-143zM299 432q0 -72 23.5 -131t65.5 -103t100.5 -69t129.5 -25q76 0 143.5 31 t119 83t81 122t29.5 147q0 70 -23.5 130.5t-65.5 105.5t-100.5 69.5t-129.5 24.5q-76 0 -143.5 -30.5t-119 -83t-81 -122t-29.5 -149.5z" />
<glyph unicode="c" horiz-adv-x="1056" d="M90 426q0 106 42 201.5t112.5 167t165 114.5t200.5 43q129 0 233.5 -60.5t164.5 -162.5l-121 -78q-41 76 -113 121t-168 45q-74 0 -140.5 -31.5t-118.5 -85t-83 -123t-31 -143.5q0 -70 24 -130t67 -104t101 -70t128 -26q86 0 163 43t130 113l112 -84q-72 -94 -179 -150.5 t-230 -56.5q-98 0 -182 36t-145.5 97.5t-96.5 144.5t-35 179z" />
<glyph unicode="d" horiz-adv-x="1222" d="M90 432q0 106 42 200.5t112.5 165t164 112.5t197.5 42q123 0 215 -52t148 -140l92 674h143l-198 -1434h-144l17 106q-61 -57 -144.5 -97t-191.5 -40q-100 0 -183.5 36t-143.5 98.5t-93 146.5t-33 182zM233 434q0 -72 24 -131t66 -104t100 -70t130 -25q76 0 143.5 30 t118.5 82t81 122.5t30 150.5q0 70 -23.5 130.5t-65.5 104.5t-100.5 68.5t-130.5 24.5q-76 0 -143.5 -30.5t-118.5 -83t-81 -122t-30 -147.5z" />
<glyph unicode="e" horiz-adv-x="1110" d="M90 426q0 106 36 201.5t101.5 167t156.5 114.5t202 43q98 0 178 -35.5t136 -97t88 -144.5t32 -179q0 -31 -4 -60.5t-10 -58.5h-768q6 -61 31.5 -111.5t67.5 -86.5t97 -55.5t119 -19.5q92 0 166 43t127 113l112 -84q-72 -94 -179 -150.5t-230 -56.5q-100 0 -184 36 t-145.5 97.5t-95.5 144.5t-34 179zM240 512h637q0 68 -20.5 123t-58.5 96t-93 63.5t-123 22.5t-125.5 -22.5t-101.5 -63.5t-73.5 -97t-41.5 -122z" />
<glyph unicode="f" horiz-adv-x="630" d="M90 786l19 136h165l33 233q18 133 55 191q37 55 95.5 86.5t134.5 31.5q47 0 93 -13t81 -40l-94 -108q-36 26 -83 26h-3q-59 0 -94 -41q-29 -31 -37 -104l-37 -262h225l-18 -136h-228l-108 -786h-144l109 786h-164z" />
<glyph unicode="g" horiz-adv-x="1224" d="M86 -289l121 78q41 -78 115.5 -122t171.5 -44q113 0 197.5 54.5t125.5 140.5q18 39 27.5 80t19.5 108l15 100q-61 -57 -144.5 -97t-191.5 -40q-100 0 -183.5 36t-143.5 98.5t-93 146.5t-33 182q0 106 42 200.5t112.5 165t164 112.5t197.5 42q123 0 215 -52t148 -140 l22 162h144l-127 -924q-12 -86 -27.5 -144.5t-38.5 -105.5q-31 -59 -77 -106.5t-104.5 -82t-128 -53t-143.5 -18.5q-131 0 -237.5 59.5t-165.5 163.5zM233 434q0 -72 24 -131t66 -104t100 -70t130 -25q76 0 143.5 30t118.5 82t81 122.5t30 150.5q0 70 -23.5 130.5 t-65.5 104.5t-100.5 68.5t-130.5 24.5q-76 0 -143.5 -30.5t-118.5 -83t-81 -122t-30 -147.5z" />
<glyph unicode="h" horiz-adv-x="1042" d="M90 0l199 1434h143l-82 -578q49 43 108.5 69.5t135.5 26.5q70 0 129 -26.5t103 -72.5t70 -109.5t26 -137.5q0 -27 -2 -55.5t-7 -50.5l-69 -500h-144l70 504q4 23 6 49.5t2 48.5q0 88 -55 151.5t-145 63.5q-70 0 -123.5 -30.5t-87.5 -77.5q-43 -57 -58 -162l-76 -547h-143 z" />
<glyph unicode="i" horiz-adv-x="450" d="M90 0l127 922h143l-127 -922h-143zM227 1219q0 43 30 72.5t73 29.5t72.5 -29.5t29.5 -72.5t-29.5 -73t-72.5 -30t-73 30t-30 73z" />
<glyph unicode="j" horiz-adv-x="450" d="M23 -481l194 1403h143l-194 -1403h-143zM227 1219q0 43 30 72.5t73 29.5t72.5 -29.5t29.5 -72.5t-29.5 -73t-72.5 -30t-73 30t-30 73z" />
<glyph unicode="k" horiz-adv-x="958" d="M90 0l199 1434h143l-119 -865l422 353h226l-515 -430l418 -492h-186l-383 449l-62 -449h-143z" />
<glyph unicode="l" horiz-adv-x="450" d="M90 0l199 1434h143l-199 -1434h-143z" />
<glyph unicode="m" horiz-adv-x="1570" d="M90 0l127 922h143l-8 -62q53 53 108.5 72.5t114.5 19.5q86 0 156 -44t107 -111q45 66 118.5 110.5t176.5 44.5q66 0 123 -24.5t100 -66.5t68.5 -100.5t25.5 -125.5q0 -31 -2 -52.5t-6 -54.5l-74 -528h-143l73 532q4 23 6.5 46.5t2.5 46.5q0 84 -52.5 138t-138.5 54 q-55 0 -101 -22.5t-77 -63.5q-23 -29 -37 -67.5t-24 -110.5l-76 -553h-144l74 532q4 23 6 46.5t2 46.5q0 84 -52 138t-138 54q-55 0 -101.5 -22.5t-76.5 -63.5q-23 -29 -37.5 -67.5t-24.5 -110.5l-76 -553h-143z" />
<glyph unicode="n" horiz-adv-x="1042" d="M90 0l127 922h143l-10 -66q49 43 108.5 69.5t135.5 26.5q70 0 129 -26.5t103 -72.5t70 -109.5t26 -137.5q0 -27 -2 -55.5t-7 -50.5l-69 -500h-144l70 504q4 23 6 49.5t2 48.5q0 88 -55 151.5t-145 63.5q-70 0 -123.5 -30.5t-87.5 -77.5q-43 -57 -58 -162l-76 -547h-143z " />
<glyph unicode="o" horiz-adv-x="1159" d="M90 426q0 106 42 201.5t112.5 167t165 114.5t200.5 43q98 0 182.5 -35.5t145.5 -97t96 -144.5t35 -179q0 -106 -42 -201.5t-112.5 -168.5t-165 -115t-200.5 -42q-98 0 -182 36t-145.5 97.5t-96.5 144.5t-35 179zM233 434q0 -72 24 -131t66 -104t100 -70t130 -25 q76 0 143.5 30t118.5 82t81 122.5t30 150.5q0 70 -23.5 130.5t-65.5 104.5t-100.5 68.5t-130.5 24.5q-76 0 -143.5 -30.5t-118.5 -83t-81 -122t-30 -147.5z" />
<glyph unicode="p" horiz-adv-x="1222" d="M23 -481l194 1403h143l-16 -107q61 57 144 97t192 40q100 0 183 -35.5t142.5 -98t93.5 -146.5t34 -183q0 -106 -42 -200t-113 -165t-164 -113t-198 -42q-123 0 -215 52.5t-147 140.5l-88 -643h-143zM297 432q0 -72 23.5 -131t65.5 -103t100.5 -69t129.5 -25 q76 0 143.5 31t119 83t81 122t29.5 147q0 70 -23.5 130.5t-65.5 105.5t-100.5 69.5t-129.5 24.5q-76 0 -143.5 -30.5t-119 -83t-81 -122t-29.5 -149.5z" />
<glyph unicode="q" horiz-adv-x="1224" d="M90 432q0 106 42 200.5t112.5 165t164 112.5t197.5 42q123 0 215 -52t148 -140l22 162h144l-195 -1403h-143l82 587q-61 -57 -144.5 -97t-191.5 -40q-100 0 -183.5 36t-143.5 98.5t-93 146.5t-33 182zM233 434q0 -72 24 -131t66 -104t100 -70t130 -25q76 0 143.5 30 t118.5 82t81 122.5t30 150.5q0 70 -23.5 130.5t-65.5 104.5t-100.5 68.5t-130.5 24.5q-76 0 -143.5 -30.5t-118.5 -83t-81 -122t-30 -147.5z" />
<glyph unicode="r" horiz-adv-x="643" d="M90 0l129 922h143l-10 -58q35 49 81 68.5t93 19.5q41 0 74 -15t55 -38l-94 -108q-16 12 -32.5 19t-43.5 7q-29 0 -57.5 -11t-48.5 -34t-36.5 -59.5t-25.5 -96.5l-84 -616h-143z" />
<glyph unicode="s" horiz-adv-x="753" d="M49 207l141 29q4 -59 44 -95.5t98 -36.5q59 0 106 40t47 108q0 49 -27.5 79.5t-69.5 56.5t-89 52.5t-86 67.5q-20 23 -44 62.5t-24 105.5q0 55 21.5 104t59.5 88t89.5 61.5t112.5 22.5q98 0 169 -60.5t87 -154.5l-139 -37q-4 53 -37 85t-86 32t-93 -39t-40 -98 q0 -45 30.5 -78t72.5 -59.5t88 -52t77 -58.5q27 -27 49.5 -72t22.5 -104t-23.5 -111.5t-65.5 -91.5t-96.5 -61.5t-115.5 -22.5q-111 0 -189 65.5t-90 172.5z" />
<glyph unicode="t" horiz-adv-x="618" d="M100 786l19 136h162l43 297h143l-43 -297h227l-18 -136h-227l-109 -786h-143l108 786h-162z" />
<glyph unicode="u" horiz-adv-x="1077" d="M139 330q0 29 3 51t8 53l67 488h143l-67 -490q-4 -35 -7 -55.5t-3 -46.5q0 -98 60 -162t159 -64q80 0 140 40t93 104q12 23 20.5 57.5t14.5 81.5l74 535h143l-76 -551q-16 -121 -49 -185q-51 -98 -147.5 -157.5t-212.5 -59.5q-76 0 -141.5 28t-114.5 76t-78 113.5 t-29 143.5z" />
<glyph unicode="v" horiz-adv-x="995" d="M59 922h152l225 -637l402 637h170l-609 -961z" />
<glyph unicode="w" horiz-adv-x="1427" d="M59 922h152l176 -600l361 641l198 -641l348 600h166l-557 -963l-194 641l-363 -641z" />
<glyph unicode="x" horiz-adv-x="901" d="M-43 0l397 479l-248 443h164l181 -324l268 324h184l-377 -457l262 -465h-163l-195 346l-287 -346h-186z" />
<glyph unicode="y" horiz-adv-x="956" d="M90 922h148l208 -736l379 736h164l-708 -1373h-160l231 451z" />
<glyph unicode="z" horiz-adv-x="929" d="M-12 0l637 786h-465l18 136h744l-641 -787h536l-18 -135h-811z" />
<glyph unicode="{" horiz-adv-x="811" d="M113 410l18 133q100 4 146.5 58t62.5 171l41 297q27 195 122 280t281 85h39l-18 -136h-27q-61 0 -104 -10t-73 -34.5t-48 -67.5t-27 -109l-43 -309q-10 -66 -24.5 -113t-36 -80.5t-52 -57.5t-71.5 -42q51 -31 80 -84t29 -119q0 -20 -1 -39.5t-6 -48.5l-43 -309 q-2 -16 -3 -30.5t-1 -28.5q0 -92 45 -127t148 -35h26l-20 -135h-37q-156 0 -230.5 76.5t-74.5 203.5q0 37 6 84l41 291q4 20 6 41t2 37q0 72 -39 115t-114 43z" />
<glyph unicode="|" horiz-adv-x="612" d="M102 -481l265 1915h143l-264 -1915h-144z" />
<glyph unicode="}" horiz-adv-x="811" d="M-12 -481l18 135h27q61 0 104 10t73 35t47 68t28 108l43 309q8 66 23.5 113t37 81t52 57.5t71.5 41.5q-51 31 -80 84t-29 119q0 20 1.5 39.5t5.5 48.5l43 309q2 16 3 30.5t1 29.5q0 92 -45 126.5t-148 34.5h-26l20 136h37q156 0 230.5 -77t74.5 -204q0 -39 -6 -84 l-41 -291q-4 -20 -6 -40.5t-2 -37.5q0 -72 39 -114.5t114 -42.5l-18 -133q-100 -4 -146.5 -58.5t-62.5 -171.5l-41 -297q-29 -195 -123 -279.5t-280 -84.5h-39z" />
<glyph unicode="~" d="M104 375q27 117 102 178t173 61q72 0 123 -26.5t94 -57t84 -57.5t90 -27q61 0 92 41t41 95l144 -31q-27 -117 -102 -178.5t-173 -61.5q-72 0 -124 27t-95 57.5t-83 57t-89 26.5q-61 0 -92 -41t-41 -94z" />
<glyph unicode="&#xa1;" horiz-adv-x="598" d="M90 -481l133 952h144l-134 -952h-143zM221 831q0 51 36 87t87 36t87 -36t36 -87t-36 -86.5t-87 -35.5t-87 35.5t-36 86.5z" />
<glyph unicode="&#xa2;" d="M102 426q0 100 38 192.5t103.5 163t153.5 115.5t189 53l20 154h144l-23 -164q96 -20 171 -75.5t122 -135.5l-121 -78q-41 76 -112.5 121t-168.5 45q-74 0 -140 -31.5t-118.5 -85t-83 -123t-30.5 -143.5q0 -70 23.5 -130t66.5 -104t101.5 -70t127.5 -26q86 0 163 43 t130 113l113 -84q-68 -88 -166 -143.5t-213 -61.5l-21 -155h-143l23 168q-78 18 -141.5 58t-109.5 98.5t-72 131t-26 154.5z" />
<glyph unicode="&#xa3;" d="M29 0l18 135h162q37 27 65 64q25 31 45.5 72.5t20.5 95.5q0 43 -8 80.5t-23 72.5h-209l19 135h125q-33 61 -58.5 130t-25.5 161q0 106 44 201.5t117.5 165t172 110.5t208.5 41q88 0 165 -27.5t138.5 -76.5t102.5 -116.5t59 -147.5l-137 -41q-12 61 -42 111.5t-74 86 t-100 56t-120 20.5q-80 0 -150.5 -32.5t-124.5 -86t-86 -124t-32 -146.5q0 -82 27.5 -150.5t62.5 -134.5h467l-18 -135h-387q12 -35 20 -73.5t8 -79.5q0 -78 -29.5 -135.5t-68.5 -96.5h346q102 0 152 31q55 35 84 110l135 -36q-25 -61 -60.5 -109.5t-87.5 -79.5 q-41 -25 -94 -38t-147 -13h-682z" />
<glyph unicode="&#xa4;" horiz-adv-x="1429" d="M121 264l198 176q-31 53 -48 113.5t-17 128.5q0 96 35 183t94 157l-129 152l108 92l125 -148q63 41 136 65.5t151 24.5q86 0 161 -27.5t134 -76.5l182 162l95 -107l-185 -162q35 -53 53.5 -115.5t18.5 -129.5q0 -98 -36 -186.5t-97 -159.5l135 -154l-109 -94l-133 153 q-61 -41 -131.5 -63.5t-148.5 -22.5q-90 0 -167 28t-136 81l-197 -176zM397 690q0 -72 23.5 -131t65.5 -104t100.5 -70t130.5 -25q76 0 143.5 30t118.5 82t81 122.5t30 150.5q0 70 -24 130.5t-66 104.5t-100 68.5t-130 24.5q-76 0 -143.5 -30.5t-118.5 -83t-81 -122 t-30 -147.5z" />
<glyph unicode="&#xa5;" d="M135 324l19 135h350l22 162h-350l19 135h299l-357 678h162l315 -603l480 603h184l-539 -678h299l-18 -135h-348l-23 -162h348l-18 -135h-348l-45 -324h-144l43 324h-350z" />
<glyph unicode="&#xa6;" horiz-adv-x="628" d="M111 -481l106 778h143l-106 -778h-143zM268 655l107 779h143l-106 -779h-144z" />
<glyph unicode="&#xa7;" horiz-adv-x="1085" d="M53 -203l144 29q14 -90 76.5 -146.5t158.5 -56.5q55 0 105.5 18.5t89.5 53.5t62.5 84t23.5 110q0 45 -17.5 86t-46.5 68q-39 35 -86 57.5t-96 40t-97 35t-91 41.5q-80 45 -129.5 118t-49.5 200q0 94 50.5 180t136.5 141q-27 41 -42.5 93t-15.5 112q0 88 35 161.5 t93.5 128t135 84t160.5 29.5q70 0 133.5 -23.5t113.5 -64.5t85 -97t47 -124l-143 -29q-14 90 -76.5 146.5t-159.5 56.5q-55 0 -105 -18.5t-89 -53t-62.5 -84t-23.5 -110.5q0 -45 17.5 -86t45.5 -68q39 -35 86 -57.5t96.5 -39.5t97.5 -34.5t91 -42.5q39 -23 71.5 -50.5 t56 -64t37 -85t13.5 -111.5q0 -98 -51 -185t-137 -143q27 -41 43 -93t16 -112q0 -88 -35 -161.5t-93 -128t-135 -84t-161 -29.5q-72 0 -134 23.5t-112.5 64.5t-85 97.5t-47.5 123.5zM244 530q0 -66 28.5 -113.5t81.5 -76.5q37 -20 80 -36.5t88 -33t89 -36t85 -44.5 q66 31 106 94.5t40 137.5q0 66 -29 113.5t-82 76.5q-37 18 -80 35t-88 34t-90 35.5t-84 43.5q-66 -31 -105.5 -94.5t-39.5 -135.5z" />
<glyph unicode="&#xa8;" horiz-adv-x="782" d="M92 1219q0 43 30 72.5t73 29.5t72.5 -29.5t29.5 -72.5t-29.5 -73t-72.5 -30t-73 30t-30 73zM485 1219q0 43 30 72.5t73 29.5t72.5 -29.5t29.5 -72.5t-29.5 -73t-72.5 -30t-73 30t-30 73z" />
<glyph unicode="&#xa9;" horiz-adv-x="1710" d="M135 672q0 158 63.5 301t172 252.5t251 174t300.5 64.5q147 0 276 -54t223.5 -149.5t148.5 -223.5t54 -275q0 -158 -63.5 -301.5t-172 -253t-251 -174t-299.5 -64.5q-147 0 -276.5 54.5t-223.5 149.5t-148.5 223t-54.5 276zM279 672q0 -121 41.5 -224.5t116.5 -180.5 t177.5 -120t223.5 -43q125 0 240.5 55.5t204.5 146.5t143.5 210t54.5 246q0 121 -42 224.5t-117 180t-177.5 119.5t-222.5 43q-125 0 -241 -55t-205 -146.5t-143 -210t-54 -245.5zM416 692q0 100 40 189.5t107.5 157t155.5 106.5t184 39q127 0 230.5 -62.5t158.5 -167.5 l-123 -67q-35 74 -104.5 118t-161.5 44q-68 0 -130 -30t-110.5 -79t-76 -113.5t-27.5 -134.5q0 -66 21.5 -121t61.5 -96t94.5 -64.5t119.5 -23.5q82 0 153.5 41t118.5 107l119 -80q-68 -92 -171 -147.5t-220 -55.5q-90 0 -171 32.5t-140.5 92t-94 139.5t-34.5 176z" />
<glyph unicode="&#xaa;" horiz-adv-x="854" d="M147 1122q0 70 27 131.5t72 108.5t106.5 74.5t132.5 27.5q59 0 112.5 -23.5t88.5 -64.5l10 66h144l-84 -608h-144l6 40q-37 -31 -83 -46t-95 -15q-61 0 -114.5 24.5t-93 66.5t-62.5 98.5t-23 119.5zM291 1122q0 -72 47 -123t117 -51q43 0 79.5 16.5t62.5 45t41 66.5 t15 81q0 72 -47 122t-117 50q-43 0 -79.5 -16.5t-62 -45t-41 -65.5t-15.5 -80z" />
<glyph unicode="&#xab;" horiz-adv-x="1155" d="M172 461l279 307h194l-295 -324l182 -290h-167zM571 461l279 307h194l-294 -324l182 -290h-168z" />
<glyph unicode="&#xac;" d="M100 682l19 135h962l-71 -520h-144l54 385h-820z" />
<glyph unicode="&#xad;" horiz-adv-x="915" d="M111 492l18 135h676l-19 -135h-675z" />
<glyph unicode="&#xae;" horiz-adv-x="1710" d="M135 672q0 158 63.5 301t172 252.5t251 174t300.5 64.5q147 0 276 -54t223.5 -149.5t148.5 -223.5t54 -275q0 -158 -63.5 -301.5t-172 -253t-251 -174t-299.5 -64.5q-147 0 -276.5 54.5t-223.5 149.5t-148.5 223t-54.5 276zM279 672q0 -121 41.5 -224.5t116.5 -180.5 t177.5 -120t223.5 -43q125 0 240.5 55.5t204.5 146.5t143.5 210t54.5 246q0 121 -42 224.5t-117 180t-177.5 119.5t-222.5 43q-125 0 -241 -55t-205 -146.5t-143 -210t-54 -245.5zM549 274l125 889h293q72 0 113.5 -12t70.5 -35q39 -31 62.5 -76t23.5 -100q0 -68 -22.5 -122 t-62.5 -93t-93 -61.5t-117 -24.5l223 -365h-168l-221 365h-33l-51 -365h-143zM764 774h149q53 0 82 9.5t45 25.5q23 20 37.5 50t14.5 63q0 41 -25 71q-14 16 -40 25.5t-79 9.5h-149z" />
<glyph unicode="&#xaf;" horiz-adv-x="1042" d="M92 1176l19 135h839l-18 -135h-840z" />
<glyph unicode="&#xb0;" horiz-adv-x="901" d="M160 1079q0 78 29.5 147.5t81 123t120 84t148.5 30.5q74 0 135 -26.5t106 -72.5t71 -108.5t26 -134.5q0 -78 -30 -147.5t-81 -122.5t-119.5 -84t-148.5 -31q-74 0 -135.5 27t-106.5 73t-70.5 108.5t-25.5 133.5zM303 1079q0 -90 53.5 -148.5t141.5 -58.5q49 0 92 20.5 t74.5 55.5t50 80t18.5 94q0 90 -53 148.5t-141 58.5q-49 0 -92.5 -20.5t-75 -55t-50 -80t-18.5 -94.5z" />
<glyph unicode="&#xb1;" d="M100 59l19 136h817l-18 -136h-818zM178 612l19 136h338l36 268h144l-39 -268h338l-19 -136h-338l-36 -266h-144l39 266h-338z" />
<glyph unicode="&#xb2;" horiz-adv-x="813" d="M184 709l353 409q29 33 45 59.5t16 55.5q0 39 -23.5 64.5t-64.5 25.5q-45 0 -69.5 -30.5t-28.5 -71.5h-144q4 49 24.5 92t53.5 74.5t77 50t95 18.5q43 0 83 -16.5t69.5 -45t47 -66.5t17.5 -79q0 -66 -33.5 -118t-93.5 -121l-143 -168h237l-18 -133h-500z" />
<glyph unicode="&#xb3;" horiz-adv-x="759" d="M188 889v14q0 8 2 19h129v-17q0 -31 26 -59.5t73 -28.5q49 0 80.5 32t31.5 77t-27.5 73.5t-84.5 28.5h-33l18 129h33q41 0 80 19.5t39 72.5q0 31 -22.5 54.5t-57.5 23.5q-41 0 -63.5 -25.5t-26.5 -60.5h-129q4 90 65.5 152.5t161.5 62.5q86 0 144.5 -58.5t58.5 -142.5 q0 -51 -27.5 -96t-68.5 -65q33 -27 52.5 -69t19.5 -93q0 -49 -20.5 -93t-54.5 -78t-78 -53.5t-93 -19.5q-96 0 -162 55.5t-66 145.5z" />
<glyph unicode="&#xb4;" horiz-adv-x="546" d="M92 1116l195 318h168l-195 -318h-168z" />
<glyph unicode="&#xb5;" horiz-adv-x="1077" d="M23 -479l194 1401h143l-69 -508q-4 -23 -6 -45.5t-2 -49.5q0 -90 58 -152.5t161 -62.5q76 0 131 31t90 86q33 53 47 166l74 535h143l-76 -547q-10 -78 -24.5 -128t-36.5 -89q-47 -84 -136 -136.5t-196 -52.5q-176 0 -272 121l-80 -569h-143z" />
<glyph unicode="&#xb6;" horiz-adv-x="1329" d="M61 963q0 131 70 242.5t184 170.5q49 27 109.5 42.5t148.5 15.5h707l-18 -136h-185l-248 -1781h-143l248 1781h-277l-247 -1781h-144l152 1095q-78 0 -143.5 27t-112.5 74t-74 111.5t-27 138.5z" />
<glyph unicode="&#xb7;" horiz-adv-x="552" d="M154 815q0 51 35.5 87t86.5 36t87 -36t36 -87t-35.5 -87t-87.5 -36q-51 0 -86.5 36t-35.5 87z" />
<glyph unicode="&#xb8;" horiz-adv-x="546" d="M92 -410l195 318h168l-195 -318h-168z" />
<glyph unicode="&#xb9;" horiz-adv-x="653" d="M176 1069l25 172l366 225l-106 -757h-144l70 489z" />
<glyph unicode="&#xba;" horiz-adv-x="854" d="M170 1122q0 70 26.5 132.5t72.5 108.5t108.5 73.5t134.5 27.5q63 0 119.5 -23.5t98.5 -65.5t65.5 -98.5t23.5 -119.5q0 -70 -26.5 -132t-72.5 -109.5t-108.5 -75t-134.5 -27.5q-66 0 -121 24.5t-97 65.5t-65.5 97.5t-23.5 121.5zM313 1122q0 -72 47.5 -123t116.5 -51 q43 0 80 16.5t62.5 45t41 66.5t15.5 81q0 72 -47 122t-117 50q-43 0 -80 -16.5t-62.5 -45t-41 -65.5t-15.5 -80z" />
<glyph unicode="&#xbb;" horiz-adv-x="1155" d="M111 154l295 323l-183 291h168l193 -307l-279 -307h-194zM510 154l295 323l-182 291h168l192 -307l-278 -307h-195z" />
<glyph unicode="&#xbc;" horiz-adv-x="1542" d="M160 0l1108 1434h172l-1108 -1434h-172zM205 1069l24 172l367 225l-107 -757h-143l70 489zM668 96l630 662l-75 -533h94l-19 -129h-94l-12 -96h-139l14 96h-399zM954 225h129l23 160z" />
<glyph unicode="&#xbd;" horiz-adv-x="1562" d="M127 0l1108 1434h172l-1108 -1434h-172zM172 1069l25 172l366 225l-106 -757h-144l70 489zM877 0l352 410q29 33 45 59.5t16 54.5q0 39 -23.5 64.5t-64.5 25.5q-45 0 -69.5 -30.5t-28.5 -71.5h-143q4 49 24.5 92t53 75t76.5 50.5t95 18.5q43 0 83 -16.5t70 -45.5 t47 -66.5t17 -78.5q0 -66 -33.5 -118t-93.5 -122l-143 -168h238l-19 -133h-499z" />
<glyph unicode="&#xbe;" horiz-adv-x="1556" d="M193 889v14q0 8 2 19h129v-17q0 -31 25.5 -59.5t72.5 -28.5q49 0 81 32t32 77t-28 73.5t-85 28.5h-33l19 129h32q41 0 80 19.5t39 72.5q0 31 -22.5 54.5t-57.5 23.5q-41 0 -63.5 -25.5t-26.5 -60.5h-129q4 90 65.5 152.5t161.5 62.5q86 0 144.5 -58.5t58.5 -142.5 q0 -51 -27.5 -96t-68.5 -65q33 -27 52.5 -69t19.5 -93q0 -49 -20.5 -93t-54.5 -78t-78 -53.5t-93 -19.5q-96 0 -161.5 55.5t-65.5 145.5zM207 0l1108 1434h172l-1108 -1434h-172zM715 96l631 662l-76 -533h94l-18 -129h-95l-12 -96h-139l14 96h-399zM1001 225h129l23 160z " />
<glyph unicode="&#xbf;" horiz-adv-x="829" d="M33 -240q0 92 40 147.5t87 88.5q43 29 89 46t89 31.5t80 32t63 46.5q16 18 25.5 38.5t9.5 49.5q0 55 -36 90t-87 35q-53 0 -93 -35t-52 -86h-146q8 53 35 99t67 81t89 55.5t104 20.5q53 0 100.5 -19.5t83 -53.5t57 -80t21.5 -99q0 -92 -43 -151.5t-102 -94.5 q-33 -18 -68.5 -31.5t-71.5 -26t-70 -25.5t-60 -32q-31 -20 -49.5 -50t-18.5 -68q0 -27 9.5 -52.5t27.5 -46t44 -34t58 -13.5q72 0 116 47t50 111h144q-4 -59 -30 -112.5t-68 -93.5t-97 -63.5t-119 -23.5q-61 0 -112.5 23.5t-88 61.5t-57 87t-20.5 100zM371 829 q0 51 35.5 87t87.5 36q51 0 86.5 -36t35.5 -87t-35.5 -86.5t-86.5 -35.5t-87 35.5t-36 86.5z" />
<glyph unicode="&#xc0;" horiz-adv-x="1433" d="M-74 0l959 1475l479 -1475h-154l-102 315h-805l-205 -315h-172zM391 451h674l-223 694zM721 1946h151l101 -318h-150z" />
<glyph unicode="&#xc1;" horiz-adv-x="1433" d="M-74 0l959 1475l479 -1475h-154l-102 315h-805l-205 -315h-172zM391 451h674l-223 694zM813 1628l195 318h168l-195 -318h-168z" />
<glyph unicode="&#xc2;" horiz-adv-x="1433" d="M-74 0l959 1475l479 -1475h-154l-102 315h-805l-205 -315h-172zM391 451h674l-223 694zM643 1628l195 318h206l101 -318h-146l-67 205l-125 -205h-164z" />
<glyph unicode="&#xc3;" horiz-adv-x="1433" d="M-74 0l959 1475l479 -1475h-154l-102 315h-805l-205 -315h-172zM391 451h674l-223 694zM555 1628q14 100 74.5 171t161.5 71q61 0 100 -21.5t67.5 -46t53 -46t59.5 -21.5q45 0 67.5 32.5t28.5 71.5h144q-14 -100 -74.5 -171t-161.5 -71q-61 0 -100 21.5t-67.5 46.5 t-53.5 46.5t-59 21.5q-45 0 -67.5 -33t-29.5 -72h-143z" />
<glyph unicode="&#xc4;" horiz-adv-x="1433" d="M-74 0l959 1475l479 -1475h-154l-102 315h-805l-205 -315h-172zM391 451h674l-223 694zM623 1731q0 43 29.5 72.5t72.5 29.5t72.5 -29.5t29.5 -72.5t-29.5 -73t-72.5 -30t-72.5 30t-29.5 73zM1016 1731q0 43 29.5 72.5t72.5 29.5t73 -29.5t30 -72.5t-30 -73t-73 -30 t-72.5 30t-29.5 73z" />
<glyph unicode="&#xc5;" horiz-adv-x="1433" d="M-74 0l959 1475l479 -1475h-154l-102 315h-805l-205 -315h-172zM391 451h674l-223 694zM682 1782q0 51 19.5 95t53 78t78 53.5t95.5 19.5t95 -19.5t78 -53.5t53.5 -78t19.5 -95t-19.5 -95.5t-53.5 -78t-78 -53t-95 -19.5t-95.5 19.5t-78 53t-53 78t-19.5 95.5zM784 1782 q0 -59 42 -101.5t102 -42.5q59 0 101 42t42 102q0 59 -42 101t-101 42t-101.5 -42t-42.5 -101z" />
<glyph unicode="&#xc6;" horiz-adv-x="2070" d="M-74 0l1286 1434h871l-19 -136h-727l-71 -512h708l-18 -135h-709l-71 -516h727l-19 -135h-870l43 315h-656l-282 -315h-193zM522 451h553l103 731z" />
<glyph unicode="&#xc7;" horiz-adv-x="1533" d="M131 674q0 162 64 303q31 72 74.5 134.5t97.5 117.5q113 115 256 175t295 60q145 0 273 -53t226 -151q33 -33 59.5 -69t49.5 -77l-119 -76q-18 35 -41 68t-51 61q-78 78 -179.5 120t-217.5 42q-123 0 -240 -51t-209 -143q-94 -92 -144.5 -215t-50.5 -246 q0 -117 41 -223.5t119 -184.5t179.5 -120t217.5 -42q123 0 240 51.5t209 143.5q18 16 33.5 35.5t32.5 40.5l110 -84q-35 -47 -74 -86q-113 -115 -256 -175.5t-295 -60.5q-145 0 -274 52.5t-227 150.5t-148.5 228t-50.5 274zM510 -410l195 318h167l-194 -318h-168z" />
<glyph unicode="&#xc8;" d="M90 0l199 1434h870l-18 -136h-727l-72 -512h709l-19 -135h-708l-72 -516h727l-18 -135h-871zM588 1946h151l101 -318h-150z" />
<glyph unicode="&#xc9;" d="M90 0l199 1434h870l-18 -136h-727l-72 -512h709l-19 -135h-708l-72 -516h727l-18 -135h-871zM664 1628l194 318h168l-195 -318h-167z" />
<glyph unicode="&#xca;" d="M90 0l199 1434h870l-18 -136h-727l-72 -512h709l-19 -135h-708l-72 -516h727l-18 -135h-871zM498 1628l194 318h207l100 -318h-145l-68 205l-124 -205h-164z" />
<glyph unicode="&#xcb;" d="M90 0l199 1434h870l-18 -136h-727l-72 -512h709l-19 -135h-708l-72 -516h727l-18 -135h-871zM463 1731q0 43 29.5 72.5t72.5 29.5t73 -29.5t30 -72.5t-30 -73t-73 -30t-72.5 30t-29.5 73zM856 1731q0 43 29.5 72.5t72.5 29.5t73 -29.5t30 -72.5t-30 -73t-73 -30t-72.5 30 t-29.5 73z" />
<glyph unicode="&#xcc;" horiz-adv-x="460" d="M90 0l199 1434h143l-199 -1434h-143zM213 1946h152l100 -318h-150z" />
<glyph unicode="&#xcd;" horiz-adv-x="460" d="M90 0l199 1434h143l-199 -1434h-143zM291 1628l194 318h168l-194 -318h-168z" />
<glyph unicode="&#xce;" horiz-adv-x="460" d="M90 0l199 1434h143l-199 -1434h-143zM129 1628l195 318h206l101 -318h-146l-67 205l-125 -205h-164z" />
<glyph unicode="&#xcf;" horiz-adv-x="460" d="M90 0l199 1434h143l-199 -1434h-143zM104 1731q0 43 30 72.5t73 29.5t72.5 -29.5t29.5 -72.5t-29.5 -73t-72.5 -30t-73 30t-30 73zM498 1731q0 43 29.5 72.5t72.5 29.5t72.5 -29.5t29.5 -72.5t-29.5 -73t-72.5 -30t-72.5 30t-29.5 73z" />
<glyph unicode="&#xd0;" horiz-adv-x="1382" d="M-25 649l19 135h205l90 650h321q92 0 155.5 -8.5t119.5 -28.5q100 -37 181 -100.5t138.5 -147.5t88 -184.5t30.5 -206.5q0 -117 -36 -226.5t-100.5 -204t-155.5 -167t-200 -113.5q-63 -25 -136.5 -36t-176.5 -11h-428l90 649h-205zM252 135h272q88 0 147.5 8.5 t112.5 28.5q86 35 159 96.5t125 139t82 168t30 182.5q0 82 -21.5 158.5t-62.5 142t-100.5 117t-135.5 81.5q-49 20 -106.5 30.5t-143.5 10.5h-196l-72 -514h481l-18 -135h-481z" />
<glyph unicode="&#xd1;" horiz-adv-x="1409" d="M90 0l205 1475l788 -1133l154 1092h143l-204 -1475l-791 1135l-152 -1094h-143zM498 1628q14 100 74.5 171t160.5 71q61 0 100 -21.5t68 -46t53.5 -46t59.5 -21.5q45 0 67.5 32.5t28.5 71.5h143q-14 -100 -74.5 -171t-160.5 -71q-61 0 -100 21.5t-68 46.5t-53.5 46.5 t-59.5 21.5q-45 0 -67.5 -33t-28.5 -72h-143z" />
<glyph unicode="&#xd2;" horiz-adv-x="1677" d="M131 674q0 162 64 303q31 72 74.5 134.5t97.5 117.5q113 115 256 175t295 60q145 0 274 -52t227 -150t148.5 -228.5t50.5 -273.5q0 -162 -64 -303q-31 -72 -74.5 -134.5t-97.5 -117.5q-113 -115 -256 -175.5t-295 -60.5q-145 0 -274 52.5t-227 150.5t-148.5 228 t-50.5 274zM274 674q0 -117 41 -223.5t119 -184.5t179.5 -120t217.5 -42q123 0 240 51.5t209 143.5q94 92 144.5 215t50.5 246q0 117 -41 223.5t-119 183.5q-78 78 -179.5 120t-217.5 42q-123 0 -240 -51t-209 -143q-94 -92 -144.5 -215t-50.5 -246zM801 1946h151l101 -318 h-150z" />
<glyph unicode="&#xd3;" horiz-adv-x="1677" d="M131 674q0 162 64 303q31 72 74.5 134.5t97.5 117.5q113 115 256 175t295 60q145 0 274 -52t227 -150t148.5 -228.5t50.5 -273.5q0 -162 -64 -303q-31 -72 -74.5 -134.5t-97.5 -117.5q-113 -115 -256 -175.5t-295 -60.5q-145 0 -274 52.5t-227 150.5t-148.5 228 t-50.5 274zM274 674q0 -117 41 -223.5t119 -184.5t179.5 -120t217.5 -42q123 0 240 51.5t209 143.5q94 92 144.5 215t50.5 246q0 117 -41 223.5t-119 183.5q-78 78 -179.5 120t-217.5 42q-123 0 -240 -51t-209 -143q-94 -92 -144.5 -215t-50.5 -246zM891 1628l194 318h168 l-194 -318h-168z" />
<glyph unicode="&#xd4;" horiz-adv-x="1677" d="M131 674q0 162 64 303q31 72 74.5 134.5t97.5 117.5q113 115 256 175t295 60q145 0 274 -52t227 -150t148.5 -228.5t50.5 -273.5q0 -162 -64 -303q-31 -72 -74.5 -134.5t-97.5 -117.5q-113 -115 -256 -175.5t-295 -60.5q-145 0 -274 52.5t-227 150.5t-148.5 228 t-50.5 274zM274 674q0 -117 41 -223.5t119 -184.5t179.5 -120t217.5 -42q123 0 240 51.5t209 143.5q94 92 144.5 215t50.5 246q0 117 -41 223.5t-119 183.5q-78 78 -179.5 120t-217.5 42q-123 0 -240 -51t-209 -143q-94 -92 -144.5 -215t-50.5 -246zM735 1628l195 318h207 l100 -318h-145l-68 205l-125 -205h-164z" />
<glyph unicode="&#xd5;" horiz-adv-x="1677" d="M131 674q0 162 64 303q31 72 74.5 134.5t97.5 117.5q113 115 256 175t295 60q145 0 274 -52t227 -150t148.5 -228.5t50.5 -273.5q0 -162 -64 -303q-31 -72 -74.5 -134.5t-97.5 -117.5q-113 -115 -256 -175.5t-295 -60.5q-145 0 -274 52.5t-227 150.5t-148.5 228 t-50.5 274zM274 674q0 -117 41 -223.5t119 -184.5t179.5 -120t217.5 -42q123 0 240 51.5t209 143.5q94 92 144.5 215t50.5 246q0 117 -41 223.5t-119 183.5q-78 78 -179.5 120t-217.5 42q-123 0 -240 -51t-209 -143q-94 -92 -144.5 -215t-50.5 -246zM641 1628 q14 100 74.5 171t161.5 71q61 0 100 -21.5t67.5 -46t53 -46t59.5 -21.5q45 0 67.5 32.5t28.5 71.5h144q-14 -100 -74.5 -171t-161.5 -71q-61 0 -100 21.5t-67.5 46.5t-53.5 46.5t-59 21.5q-45 0 -67.5 -33t-29.5 -72h-143z" />
<glyph unicode="&#xd6;" horiz-adv-x="1677" d="M131 674q0 162 64 303q31 72 74.5 134.5t97.5 117.5q113 115 256 175t295 60q145 0 274 -52t227 -150t148.5 -228.5t50.5 -273.5q0 -162 -64 -303q-31 -72 -74.5 -134.5t-97.5 -117.5q-113 -115 -256 -175.5t-295 -60.5q-145 0 -274 52.5t-227 150.5t-148.5 228 t-50.5 274zM274 674q0 -117 41 -223.5t119 -184.5t179.5 -120t217.5 -42q123 0 240 51.5t209 143.5q94 92 144.5 215t50.5 246q0 117 -41 223.5t-119 183.5q-78 78 -179.5 120t-217.5 42q-123 0 -240 -51t-209 -143q-94 -92 -144.5 -215t-50.5 -246zM715 1731 q0 43 29.5 72.5t72.5 29.5t73 -29.5t30 -72.5t-30 -73t-73 -30t-72.5 30t-29.5 73zM1108 1731q0 43 29.5 72.5t72.5 29.5t73 -29.5t30 -72.5t-30 -73t-73 -30t-72.5 30t-29.5 73z" />
<glyph unicode="&#xd7;" horiz-adv-x="1163" d="M164 233l315 277l-227 268l108 92l226 -266l319 283l96 -109l-321 -284l235 -277l-108 -92l-234 274l-313 -274z" />
<glyph unicode="&#xd8;" horiz-adv-x="1677" d="M131 674q0 162 64 303q31 72 74.5 134.5t97.5 117.5q113 115 256 175t295 60q213 0 385 -112l92 112h186l-166 -202q98 -100 150.5 -229.5t52.5 -272.5q0 -162 -64 -303q-31 -72 -74.5 -134.5t-97.5 -117.5q-113 -115 -256 -175.5t-295 -60.5q-215 0 -385 111l-92 -111 h-186l166 203q-98 100 -150.5 229.5t-52.5 272.5zM274 674q0 -111 38 -214.5t110 -180.5l792 966q-131 84 -296 84q-123 0 -240 -51t-209 -143q-94 -92 -144.5 -215t-50.5 -246zM532 186q131 -82 299 -82q123 0 240 51.5t209 143.5q94 92 144.5 215t50.5 246q0 111 -38 213 t-110 180z" />
<glyph unicode="&#xd9;" horiz-adv-x="1325" d="M158 451q0 16 3 46.5t7 61.5l121 875h143l-121 -883q-4 -29 -7 -56.5t-3 -43.5q0 -76 24.5 -139.5t68.5 -109.5t105.5 -72t137.5 -26q109 0 195 57.5t133 145.5q16 33 30.5 71t22.5 91l135 965h143l-133 -953q-10 -66 -22.5 -115t-32.5 -92q-66 -141 -190.5 -223 t-284.5 -82q-102 0 -189.5 36t-151 100.5t-99 152.5t-35.5 193zM635 1946h151l101 -318h-150z" />
<glyph unicode="&#xda;" horiz-adv-x="1325" d="M158 451q0 16 3 46.5t7 61.5l121 875h143l-121 -883q-4 -29 -7 -56.5t-3 -43.5q0 -76 24.5 -139.5t68.5 -109.5t105.5 -72t137.5 -26q109 0 195 57.5t133 145.5q16 33 30.5 71t22.5 91l135 965h143l-133 -953q-10 -66 -22.5 -115t-32.5 -92q-66 -141 -190.5 -223 t-284.5 -82q-102 0 -189.5 36t-151 100.5t-99 152.5t-35.5 193zM725 1628l195 318h167l-194 -318h-168z" />
<glyph unicode="&#xdb;" horiz-adv-x="1325" d="M158 451q0 16 3 46.5t7 61.5l121 875h143l-121 -883q-4 -29 -7 -56.5t-3 -43.5q0 -76 24.5 -139.5t68.5 -109.5t105.5 -72t137.5 -26q109 0 195 57.5t133 145.5q16 33 30.5 71t22.5 91l135 965h143l-133 -953q-10 -66 -22.5 -115t-32.5 -92q-66 -141 -190.5 -223 t-284.5 -82q-102 0 -189.5 36t-151 100.5t-99 152.5t-35.5 193zM565 1628l195 318h207l100 -318h-145l-68 205l-125 -205h-164z" />
<glyph unicode="&#xdc;" horiz-adv-x="1325" d="M158 451q0 16 3 46.5t7 61.5l121 875h143l-121 -883q-4 -29 -7 -56.5t-3 -43.5q0 -76 24.5 -139.5t68.5 -109.5t105.5 -72t137.5 -26q109 0 195 57.5t133 145.5q16 33 30.5 71t22.5 91l135 965h143l-133 -953q-10 -66 -22.5 -115t-32.5 -92q-66 -141 -190.5 -223 t-284.5 -82q-102 0 -189.5 36t-151 100.5t-99 152.5t-35.5 193zM522 1731q0 43 30 72.5t73 29.5t72.5 -29.5t29.5 -72.5t-29.5 -73t-72.5 -30t-73 30t-30 73zM915 1731q0 43 30 72.5t73 29.5t72.5 -29.5t29.5 -72.5t-29.5 -73t-72.5 -30t-73 30t-30 73z" />
<glyph unicode="&#xdd;" horiz-adv-x="1089" d="M80 1434h162l315 -603l479 603h185l-598 -754l-95 -680h-143l92 680zM586 1628l194 318h168l-194 -318h-168z" />
<glyph unicode="&#xde;" horiz-adv-x="1165" d="M90 0l199 1434h143l-43 -310h311q92 0 153.5 -17t109.5 -50q76 -51 119.5 -133t43.5 -185q0 -123 -63.5 -225t-167.5 -156q-45 -23 -98.5 -34t-139.5 -11h-381l-43 -313h-143zM297 449h360q72 0 114 9t75 29q61 39 99 107t38 145q0 59 -24.5 110.5t-65.5 86.5 q-31 25 -74 39t-119 14h-327z" />
<glyph unicode="&#xdf;" horiz-adv-x="1081" d="M29 735l18 135h193l30 215q10 68 28.5 123.5t47.5 96.5q53 72 134 115.5t173 43.5q74 0 137.5 -26.5t110.5 -73.5t73.5 -110.5t26.5 -137.5q0 -102 -51 -190t-137 -127q88 -41 138 -131t50 -203t-51 -210t-137 -163q-57 -43 -132 -67.5t-181 -24.5h-29l18 135h17 q92 0 148.5 22.5t97.5 63.5q49 47 77.5 109.5t28.5 134.5q0 82 -37 143.5t-102 96.5q-29 16 -68 23t-104 7h-35l18 135h48q72 0 117.5 14.5t76.5 41.5q41 35 63.5 85t22.5 105q0 92 -56.5 152.5t-148.5 60.5q-57 0 -108 -26.5t-84 -73.5q-16 -23 -28.5 -61t-20.5 -91 l-150 -1077h-143l102 735h-192z" />
<glyph unicode="&#xe0;" horiz-adv-x="1224" d="M90 432q0 106 42 200.5t112.5 165t164 112.5t197.5 42q123 0 215 -52t148 -140l22 162h144l-129 -922h-144l17 106q-61 -57 -144.5 -97t-191.5 -40q-100 0 -183.5 36t-143.5 98.5t-93 146.5t-33 182zM233 434q0 -72 24 -131t66 -104t100 -70t130 -25q76 0 143.5 30 t118.5 82t81 122.5t30 150.5q0 70 -23.5 130.5t-65.5 104.5t-100.5 68.5t-130.5 24.5q-76 0 -143.5 -30.5t-118.5 -83t-81 -122t-30 -147.5zM526 1434h152l100 -318h-149z" />
<glyph unicode="&#xe1;" horiz-adv-x="1224" d="M90 432q0 106 42 200.5t112.5 165t164 112.5t197.5 42q123 0 215 -52t148 -140l22 162h144l-129 -922h-144l17 106q-61 -57 -144.5 -97t-191.5 -40q-100 0 -183.5 36t-143.5 98.5t-93 146.5t-33 182zM233 434q0 -72 24 -131t66 -104t100 -70t130 -25q76 0 143.5 30 t118.5 82t81 122.5t30 150.5q0 70 -23.5 130.5t-65.5 104.5t-100.5 68.5t-130.5 24.5q-76 0 -143.5 -30.5t-118.5 -83t-81 -122t-30 -147.5zM610 1116l195 318h168l-195 -318h-168z" />
<glyph unicode="&#xe2;" horiz-adv-x="1224" d="M90 432q0 106 42 200.5t112.5 165t164 112.5t197.5 42q123 0 215 -52t148 -140l22 162h144l-129 -922h-144l17 106q-61 -57 -144.5 -97t-191.5 -40q-100 0 -183.5 36t-143.5 98.5t-93 146.5t-33 182zM233 434q0 -72 24 -131t66 -104t100 -70t130 -25q76 0 143.5 30 t118.5 82t81 122.5t30 150.5q0 70 -23.5 130.5t-65.5 104.5t-100.5 68.5t-130.5 24.5q-76 0 -143.5 -30.5t-118.5 -83t-81 -122t-30 -147.5zM442 1116l195 318h207l100 -318h-145l-68 205l-125 -205h-164z" />
<glyph unicode="&#xe3;" horiz-adv-x="1224" d="M90 432q0 106 42 200.5t112.5 165t164 112.5t197.5 42q123 0 215 -52t148 -140l22 162h144l-129 -922h-144l17 106q-61 -57 -144.5 -97t-191.5 -40q-100 0 -183.5 36t-143.5 98.5t-93 146.5t-33 182zM233 434q0 -72 24 -131t66 -104t100 -70t130 -25q76 0 143.5 30 t118.5 82t81 122.5t30 150.5q0 70 -23.5 130.5t-65.5 104.5t-100.5 68.5t-130.5 24.5q-76 0 -143.5 -30.5t-118.5 -83t-81 -122t-30 -147.5zM342 1116q14 100 74.5 171t161.5 71q61 0 100 -21.5t67.5 -46t53 -46t59.5 -21.5q45 0 67.5 32.5t28.5 71.5h144 q-14 -100 -74.5 -171t-161.5 -71q-61 0 -100 21.5t-67.5 46.5t-53.5 46.5t-59 21.5q-45 0 -67.5 -33t-29.5 -72h-143z" />
<glyph unicode="&#xe4;" horiz-adv-x="1224" d="M90 432q0 106 42 200.5t112.5 165t164 112.5t197.5 42q123 0 215 -52t148 -140l22 162h144l-129 -922h-144l17 106q-61 -57 -144.5 -97t-191.5 -40q-100 0 -183.5 36t-143.5 98.5t-93 146.5t-33 182zM233 434q0 -72 24 -131t66 -104t100 -70t130 -25q76 0 143.5 30 t118.5 82t81 122.5t30 150.5q0 70 -23.5 130.5t-65.5 104.5t-100.5 68.5t-130.5 24.5q-76 0 -143.5 -30.5t-118.5 -83t-81 -122t-30 -147.5zM416 1219q0 43 29.5 72.5t72.5 29.5t73 -29.5t30 -72.5t-30 -73t-73 -30t-72.5 30t-29.5 73zM809 1219q0 43 29.5 72.5t72.5 29.5 t73 -29.5t30 -72.5t-30 -73t-73 -30t-72.5 30t-29.5 73z" />
<glyph unicode="&#xe5;" horiz-adv-x="1224" d="M90 432q0 106 42 200.5t112.5 165t164 112.5t197.5 42q123 0 215 -52t148 -140l22 162h144l-129 -922h-144l17 106q-61 -57 -144.5 -97t-191.5 -40q-100 0 -183.5 36t-143.5 98.5t-93 146.5t-33 182zM233 434q0 -72 24 -131t66 -104t100 -70t130 -25q76 0 143.5 30 t118.5 82t81 122.5t30 150.5q0 70 -23.5 130.5t-65.5 104.5t-100.5 68.5t-130.5 24.5q-76 0 -143.5 -30.5t-118.5 -83t-81 -122t-30 -147.5zM479 1270q0 51 19.5 95t53.5 78t78 53.5t95 19.5t95 -19.5t78 -53.5t53.5 -78t19.5 -95t-19.5 -95.5t-53.5 -78t-78 -53t-95 -19.5 t-95 19.5t-78 53t-53.5 78t-19.5 95.5zM582 1270q0 -59 42 -101.5t101 -42.5t101 42t42 102q0 59 -42 101t-101 42t-101 -42t-42 -101z" />
<glyph unicode="&#xe6;" horiz-adv-x="1730" d="M59 246q0 92 41 158.5t105 99.5q41 23 94 32t131 9h293q2 16 3 28.5t1 28.5q0 47 -11 80t-32 59q-29 35 -71 55.5t-95 20.5q-76 0 -142.5 -36t-111.5 -101l-108 72q55 92 153.5 146t206.5 54q117 0 200 -51t113 -129q66 82 162 131t215 49q98 0 178 -35.5t136.5 -97 t88 -144.5t31.5 -179q0 -31 -4 -60.5t-10 -58.5h-768q6 -61 31.5 -111.5t67.5 -86.5t97.5 -55.5t119.5 -19.5q92 0 165.5 43t126.5 113l113 -84q-72 -94 -179.5 -150.5t-230.5 -56.5q-137 0 -241.5 63.5t-161.5 170.5q-47 -104 -149.5 -169t-243.5 -65q-57 0 -113.5 17.5 t-100.5 52.5t-72 87t-28 120zM205 262q0 -74 48 -116t130 -42q49 0 101.5 15.5t97.5 51.5t77.5 94.5t45.5 144.5h-285q-59 0 -94 -6.5t-62 -24.5q-25 -16 -42 -46t-17 -71zM860 512h637q0 68 -20.5 123t-58.5 96t-93 63.5t-123 22.5t-125 -22.5t-101 -63.5t-74 -97t-42 -122 z" />
<glyph unicode="&#xe7;" horiz-adv-x="1056" d="M90 426q0 106 42 201.5t112.5 167t165 114.5t200.5 43q129 0 233.5 -60.5t164.5 -162.5l-121 -78q-41 76 -113 121t-168 45q-74 0 -140.5 -31.5t-118.5 -85t-83 -123t-31 -143.5q0 -70 24 -130t67 -104t101 -70t128 -26q86 0 163 43t130 113l112 -84q-72 -94 -179 -150.5 t-230 -56.5q-98 0 -182 36t-145.5 97.5t-96.5 144.5t-35 179zM215 -410l195 318h168l-195 -318h-168z" />
<glyph unicode="&#xe8;" horiz-adv-x="1110" d="M90 426q0 106 36 201.5t101.5 167t156.5 114.5t202 43q98 0 178 -35.5t136 -97t88 -144.5t32 -179q0 -31 -4 -60.5t-10 -58.5h-768q6 -61 31.5 -111.5t67.5 -86.5t97 -55.5t119 -19.5q92 0 166 43t127 113l112 -84q-72 -94 -179 -150.5t-230 -56.5q-100 0 -184 36 t-145.5 97.5t-95.5 144.5t-34 179zM240 512h637q0 68 -20.5 123t-58.5 96t-93 63.5t-123 22.5t-125.5 -22.5t-101.5 -63.5t-73.5 -97t-41.5 -122zM465 1434h151l101 -318h-150z" />
<glyph unicode="&#xe9;" horiz-adv-x="1110" d="M90 426q0 106 36 201.5t101.5 167t156.5 114.5t202 43q98 0 178 -35.5t136 -97t88 -144.5t32 -179q0 -31 -4 -60.5t-10 -58.5h-768q6 -61 31.5 -111.5t67.5 -86.5t97 -55.5t119 -19.5q92 0 166 43t127 113l112 -84q-72 -94 -179 -150.5t-230 -56.5q-100 0 -184 36 t-145.5 97.5t-95.5 144.5t-34 179zM240 512h637q0 68 -20.5 123t-58.5 96t-93 63.5t-123 22.5t-125.5 -22.5t-101.5 -63.5t-73.5 -97t-41.5 -122zM549 1116l194 318h168l-194 -318h-168z" />
<glyph unicode="&#xea;" horiz-adv-x="1110" d="M90 426q0 106 36 201.5t101.5 167t156.5 114.5t202 43q98 0 178 -35.5t136 -97t88 -144.5t32 -179q0 -31 -4 -60.5t-10 -58.5h-768q6 -61 31.5 -111.5t67.5 -86.5t97 -55.5t119 -19.5q92 0 166 43t127 113l112 -84q-72 -94 -179 -150.5t-230 -56.5q-100 0 -184 36 t-145.5 97.5t-95.5 144.5t-34 179zM240 512h637q0 68 -20.5 123t-58.5 96t-93 63.5t-123 22.5t-125.5 -22.5t-101.5 -63.5t-73.5 -97t-41.5 -122zM381 1116l194 318h207l101 -318h-146l-67 205l-125 -205h-164z" />
<glyph unicode="&#xeb;" horiz-adv-x="1110" d="M90 426q0 106 36 201.5t101.5 167t156.5 114.5t202 43q98 0 178 -35.5t136 -97t88 -144.5t32 -179q0 -31 -4 -60.5t-10 -58.5h-768q6 -61 31.5 -111.5t67.5 -86.5t97 -55.5t119 -19.5q92 0 166 43t127 113l112 -84q-72 -94 -179 -150.5t-230 -56.5q-100 0 -184 36 t-145.5 97.5t-95.5 144.5t-34 179zM240 512h637q0 68 -20.5 123t-58.5 96t-93 63.5t-123 22.5t-125.5 -22.5t-101.5 -63.5t-73.5 -97t-41.5 -122zM344 1219q0 43 29.5 72.5t72.5 29.5t73 -29.5t30 -72.5t-30 -73t-73 -30t-72.5 30t-29.5 73zM737 1219q0 43 30 72.5t73 29.5 t72.5 -29.5t29.5 -72.5t-29.5 -73t-72.5 -30t-73 30t-30 73z" />
<glyph unicode="&#xec;" horiz-adv-x="450" d="M90 0l127 922h143l-127 -922h-143zM141 1434h152l100 -318h-149z" />
<glyph unicode="&#xed;" horiz-adv-x="450" d="M90 0l127 922h143l-127 -922h-143zM221 1116l195 318h168l-195 -318h-168z" />
<glyph unicode="&#xee;" horiz-adv-x="450" d="M57 1116l195 318h207l100 -318h-145l-68 205l-125 -205h-164zM90 0l127 922h143l-127 -922h-143z" />
<glyph unicode="&#xef;" horiz-adv-x="450" d="M33 1219q0 43 29.5 72.5t72.5 29.5t73 -29.5t30 -72.5t-30 -73t-73 -30t-72.5 30t-29.5 73zM90 0l127 922h143l-127 -922h-143zM426 1219q0 43 29.5 72.5t72.5 29.5t73 -29.5t30 -72.5t-30 -73t-73 -30t-72.5 30t-29.5 73z" />
<glyph unicode="&#xf0;" horiz-adv-x="1163" d="M90 434q0 104 39 198.5t107.5 166t162 113.5t199.5 42q49 0 88 -9t74 -23l-107 225l-293 -139l25 172l205 98l-72 156h160l43 -93l274 134l-24 -175l-189 -90l226 -479q61 -133 61 -256q0 -102 -42 -194.5t-112.5 -161t-164 -109.5t-197.5 -41q-96 0 -181 36t-147.5 98.5 t-98.5 147.5t-36 183zM233 434q0 -70 24 -130t66 -104t100 -70t130 -26q80 0 148.5 31t117.5 84t78 123t29 147q0 70 -23.5 129.5t-66.5 104.5t-101.5 70.5t-128.5 25.5q-76 0 -143.5 -31.5t-118.5 -86t-81 -124t-30 -143.5z" />
<glyph unicode="&#xf1;" horiz-adv-x="1042" d="M90 0l127 922h143l-10 -66q49 43 108.5 69.5t135.5 26.5q70 0 129 -26.5t103 -72.5t70 -109.5t26 -137.5q0 -27 -2 -55.5t-7 -50.5l-69 -500h-144l70 504q4 23 6 49.5t2 48.5q0 88 -55 151.5t-145 63.5q-70 0 -123.5 -30.5t-87.5 -77.5q-43 -57 -58 -162l-76 -547h-143z M233 1116q14 100 75 171t161 71q61 0 100 -21.5t68 -46t53.5 -46t59.5 -21.5q45 0 67.5 32.5t28.5 71.5h143q-14 -100 -74.5 -171t-160.5 -71q-61 0 -100.5 21.5t-68 46.5t-53 46.5t-59.5 21.5q-45 0 -67.5 -33t-28.5 -72h-144z" />
<glyph unicode="&#xf2;" horiz-adv-x="1159" d="M90 426q0 106 42 201.5t112.5 167t165 114.5t200.5 43q98 0 182.5 -35.5t145.5 -97t96 -144.5t35 -179q0 -106 -42 -201.5t-112.5 -168.5t-165 -115t-200.5 -42q-98 0 -182 36t-145.5 97.5t-96.5 144.5t-35 179zM233 434q0 -72 24 -131t66 -104t100 -70t130 -25 q76 0 143.5 30t118.5 82t81 122.5t30 150.5q0 70 -23.5 130.5t-65.5 104.5t-100.5 68.5t-130.5 24.5q-76 0 -143.5 -30.5t-118.5 -83t-81 -122t-30 -147.5zM496 1434h151l101 -318h-150z" />
<glyph unicode="&#xf3;" horiz-adv-x="1159" d="M90 426q0 106 42 201.5t112.5 167t165 114.5t200.5 43q98 0 182.5 -35.5t145.5 -97t96 -144.5t35 -179q0 -106 -42 -201.5t-112.5 -168.5t-165 -115t-200.5 -42q-98 0 -182 36t-145.5 97.5t-96.5 144.5t-35 179zM233 434q0 -72 24 -131t66 -104t100 -70t130 -25 q76 0 143.5 30t118.5 82t81 122.5t30 150.5q0 70 -23.5 130.5t-65.5 104.5t-100.5 68.5t-130.5 24.5q-76 0 -143.5 -30.5t-118.5 -83t-81 -122t-30 -147.5zM594 1116l194 318h168l-194 -318h-168z" />
<glyph unicode="&#xf4;" horiz-adv-x="1159" d="M90 426q0 106 42 201.5t112.5 167t165 114.5t200.5 43q98 0 182.5 -35.5t145.5 -97t96 -144.5t35 -179q0 -106 -42 -201.5t-112.5 -168.5t-165 -115t-200.5 -42q-98 0 -182 36t-145.5 97.5t-96.5 144.5t-35 179zM233 434q0 -72 24 -131t66 -104t100 -70t130 -25 q76 0 143.5 30t118.5 82t81 122.5t30 150.5q0 70 -23.5 130.5t-65.5 104.5t-100.5 68.5t-130.5 24.5q-76 0 -143.5 -30.5t-118.5 -83t-81 -122t-30 -147.5zM432 1116l195 318h207l100 -318h-146l-67 205l-125 -205h-164z" />
<glyph unicode="&#xf5;" horiz-adv-x="1159" d="M90 426q0 106 42 201.5t112.5 167t165 114.5t200.5 43q98 0 182.5 -35.5t145.5 -97t96 -144.5t35 -179q0 -106 -42 -201.5t-112.5 -168.5t-165 -115t-200.5 -42q-98 0 -182 36t-145.5 97.5t-96.5 144.5t-35 179zM233 434q0 -72 24 -131t66 -104t100 -70t130 -25 q76 0 143.5 30t118.5 82t81 122.5t30 150.5q0 70 -23.5 130.5t-65.5 104.5t-100.5 68.5t-130.5 24.5q-76 0 -143.5 -30.5t-118.5 -83t-81 -122t-30 -147.5zM309 1116q14 100 74.5 171t161.5 71q61 0 100 -21.5t67.5 -46t53.5 -46t59 -21.5q45 0 67.5 32.5t29.5 71.5h143 q-14 -100 -74.5 -171t-161.5 -71q-61 0 -100 21.5t-67.5 46.5t-53 46.5t-59.5 21.5q-45 0 -67.5 -33t-28.5 -72h-144z" />
<glyph unicode="&#xf6;" horiz-adv-x="1159" d="M90 426q0 106 42 201.5t112.5 167t165 114.5t200.5 43q98 0 182.5 -35.5t145.5 -97t96 -144.5t35 -179q0 -106 -42 -201.5t-112.5 -168.5t-165 -115t-200.5 -42q-98 0 -182 36t-145.5 97.5t-96.5 144.5t-35 179zM233 434q0 -72 24 -131t66 -104t100 -70t130 -25 q76 0 143.5 30t118.5 82t81 122.5t30 150.5q0 70 -23.5 130.5t-65.5 104.5t-100.5 68.5t-130.5 24.5q-76 0 -143.5 -30.5t-118.5 -83t-81 -122t-30 -147.5zM406 1219q0 43 29.5 72.5t72.5 29.5t72.5 -29.5t29.5 -72.5t-29.5 -73t-72.5 -30t-72.5 30t-29.5 73zM799 1219 q0 43 29.5 72.5t72.5 29.5t73 -29.5t30 -72.5t-30 -73t-73 -30t-72.5 30t-29.5 73z" />
<glyph unicode="&#xf7;" d="M88 436l18 135h963l-18 -135h-963zM408 137q0 51 35.5 87t86.5 36t87 -36t36 -87t-35.5 -87t-87.5 -36q-51 0 -86.5 36t-35.5 87zM506 868q0 51 36 87t87 36t87 -35.5t36 -87.5q0 -51 -36 -87t-87 -36t-87 36t-36 87z" />
<glyph unicode="&#xf8;" horiz-adv-x="1159" d="M80 -31l125 152q-53 59 -83 137t-30 168q0 106 42 201.5t112.5 167t165 114.5t200.5 43q66 0 123.5 -16t108.5 -45l51 61h186l-125 -151q53 -61 84 -138t31 -167q0 -106 -42 -201.5t-112.5 -168.5t-165 -115t-200.5 -42q-66 0 -124 16.5t-110 45.5l-51 -62h-186zM236 434 q0 -59 15 -111.5t46 -93.5l459 555q-70 33 -148 33q-76 0 -143.5 -30.5t-118.5 -83t-80.5 -122t-29.5 -147.5zM406 137q70 -33 149 -33q76 0 143.5 30t118.5 82t81 122.5t30 150.5q0 59 -16.5 110.5t-45.5 92.5z" />
<glyph unicode="&#xf9;" horiz-adv-x="1077" d="M139 330q0 29 3 51t8 53l67 488h143l-67 -490q-4 -35 -7 -55.5t-3 -46.5q0 -98 60 -162t159 -64q80 0 140 40t93 104q12 23 20.5 57.5t14.5 81.5l74 535h143l-76 -551q-16 -121 -49 -185q-51 -98 -147.5 -157.5t-212.5 -59.5q-76 0 -141.5 28t-114.5 76t-78 113.5 t-29 143.5zM451 1434h151l100 -318h-149z" />
<glyph unicode="&#xfa;" horiz-adv-x="1077" d="M139 330q0 29 3 51t8 53l67 488h143l-67 -490q-4 -35 -7 -55.5t-3 -46.5q0 -98 60 -162t159 -64q80 0 140 40t93 104q12 23 20.5 57.5t14.5 81.5l74 535h143l-76 -551q-16 -121 -49 -185q-51 -98 -147.5 -157.5t-212.5 -59.5q-76 0 -141.5 28t-114.5 76t-78 113.5 t-29 143.5zM535 1116l194 318h168l-195 -318h-167z" />
<glyph unicode="&#xfb;" horiz-adv-x="1077" d="M139 330q0 29 3 51t8 53l67 488h143l-67 -490q-4 -35 -7 -55.5t-3 -46.5q0 -98 60 -162t159 -64q80 0 140 40t93 104q12 23 20.5 57.5t14.5 81.5l74 535h143l-76 -551q-16 -121 -49 -185q-51 -98 -147.5 -157.5t-212.5 -59.5q-76 0 -141.5 28t-114.5 76t-78 113.5 t-29 143.5zM375 1116l194 318h207l101 -318h-146l-67 205l-125 -205h-164z" />
<glyph unicode="&#xfc;" horiz-adv-x="1077" d="M139 330q0 29 3 51t8 53l67 488h143l-67 -490q-4 -35 -7 -55.5t-3 -46.5q0 -98 60 -162t159 -64q80 0 140 40t93 104q12 23 20.5 57.5t14.5 81.5l74 535h143l-76 -551q-16 -121 -49 -185q-51 -98 -147.5 -157.5t-212.5 -59.5q-76 0 -141.5 28t-114.5 76t-78 113.5 t-29 143.5zM328 1219q0 43 29.5 72.5t72.5 29.5t72.5 -29.5t29.5 -72.5t-29.5 -73t-72.5 -30t-72.5 30t-29.5 73zM721 1219q0 43 29.5 72.5t72.5 29.5t73 -29.5t30 -72.5t-30 -73t-73 -30t-72.5 30t-29.5 73z" />
<glyph unicode="&#xfd;" horiz-adv-x="956" d="M90 922h148l208 -736l379 736h164l-708 -1373h-160l231 451zM461 1116l194 318h168l-194 -318h-168z" />
<glyph unicode="&#xfe;" horiz-adv-x="1222" d="M23 -481l266 1915h143l-88 -619q61 57 144 97t192 40q100 0 183 -35.5t142.5 -98t93.5 -146.5t34 -183q0 -106 -42 -200t-113 -165t-164 -113t-198 -42q-123 0 -215 52.5t-147 140.5l-88 -643h-143zM297 432q0 -72 23.5 -131t65.5 -103t100.5 -69t129.5 -25 q76 0 143.5 31t119 83t81 122t29.5 147q0 70 -23.5 130.5t-65.5 105.5t-100.5 69.5t-129.5 24.5q-76 0 -143.5 -30.5t-119 -83t-81 -122t-29.5 -149.5z" />
<glyph unicode="&#xff;" horiz-adv-x="956" d="M90 922h148l208 -736l379 736h164l-708 -1373h-160l231 451zM268 1219q0 43 30 72.5t73 29.5t72.5 -29.5t29.5 -72.5t-29.5 -73t-72.5 -30t-73 30t-30 73zM662 1219q0 43 29.5 72.5t72.5 29.5t72.5 -29.5t29.5 -72.5t-29.5 -73t-72.5 -30t-72.5 30t-29.5 73z" />
<glyph unicode="&#x152;" horiz-adv-x="2433" d="M131 674q0 162 64 303q31 72 74.5 134.5t97.5 117.5q113 115 256 175t295 60q96 0 188 -25.5t172 -72.5t143.5 -116.5t104.5 -157.5l49 342h870l-18 -136h-727l-72 -512h709l-19 -135h-708l-72 -516h727l-18 -135h-871l33 244q-49 -63 -113.5 -113.5t-140.5 -86.5 t-158 -55.5t-166 -19.5q-145 0 -273 53.5t-226 151.5t-149.5 227t-51.5 273zM274 674q0 -117 41 -223.5t119 -184.5t179.5 -120t217.5 -42q123 0 240 51.5t209 143.5q94 92 144.5 215t50.5 246q0 117 -41 223.5t-119 183.5q-78 78 -179.5 120t-217.5 42q-123 0 -240 -51 t-209 -143q-94 -92 -144.5 -215t-50.5 -246z" />
<glyph unicode="&#x153;" horiz-adv-x="1943" d="M90 426q0 106 42 201.5t112.5 167t165 114.5t200.5 43q131 0 234.5 -61.5t163.5 -165.5q66 102 171 164.5t240 62.5q98 0 178 -35.5t136.5 -97t88 -144.5t31.5 -179q0 -31 -4 -60.5t-10 -58.5h-768q14 -123 101.5 -198t213.5 -75q86 0 163 43t130 113l113 -84 q-72 -94 -179.5 -150.5t-230.5 -56.5q-137 0 -242.5 63.5t-162.5 170.5q-72 -104 -183.5 -169t-244.5 -65q-98 0 -182 36t-145.5 97.5t-96.5 144.5t-35 179zM233 434q0 -72 24 -131t66 -104t100 -70t130 -25t136.5 27t113.5 74t82 109.5t39 136.5q0 18 2 26v12 q0 70 -23.5 130.5t-65.5 104.5t-100.5 68.5t-130.5 24.5q-76 0 -143.5 -30.5t-118.5 -83t-81 -122t-30 -147.5zM1073 512h637q0 68 -20.5 123t-58.5 96t-93 63.5t-123 22.5t-125 -22.5t-101 -63.5t-74 -97t-42 -122z" />
<glyph unicode="&#x178;" horiz-adv-x="1089" d="M80 1434h162l315 -603l479 603h185l-598 -754l-95 -680h-143l92 680zM379 1731q0 43 29.5 72.5t72.5 29.5t73 -29.5t30 -72.5t-30 -73t-73 -30t-72.5 30t-29.5 73zM772 1731q0 43 29.5 72.5t72.5 29.5t73 -29.5t30 -72.5t-29.5 -73t-73.5 -30q-43 0 -72.5 30t-29.5 73z " />
<glyph unicode="&#x2c6;" horiz-adv-x="686" d="M92 1116l195 318h207l100 -318h-145l-68 205l-125 -205h-164z" />
<glyph unicode="&#x2dc;" horiz-adv-x="940" d="M92 1116q14 100 74.5 171t161.5 71q61 0 100 -21.5t67.5 -46t53 -46t59.5 -21.5q45 0 67.5 32.5t29.5 71.5h143q-14 -100 -74.5 -171t-161.5 -71q-61 0 -100 21.5t-67.5 46.5t-53 46.5t-59.5 21.5q-45 0 -67.5 -33t-28.5 -72h-144z" />
<glyph unicode="&#x2000;" horiz-adv-x="1014" />
<glyph unicode="&#x2001;" horiz-adv-x="2028" />
<glyph unicode="&#x2002;" horiz-adv-x="1014" />
<glyph unicode="&#x2003;" horiz-adv-x="2028" />
<glyph unicode="&#x2004;" horiz-adv-x="676" />
<glyph unicode="&#x2005;" horiz-adv-x="507" />
<glyph unicode="&#x2006;" horiz-adv-x="338" />
<glyph unicode="&#x2007;" horiz-adv-x="338" />
<glyph unicode="&#x2008;" horiz-adv-x="253" />
<glyph unicode="&#x2009;" horiz-adv-x="405" />
<glyph unicode="&#x200a;" horiz-adv-x="112" />
<glyph unicode="&#x2010;" horiz-adv-x="915" d="M111 492l18 135h676l-19 -135h-675z" />
<glyph unicode="&#x2011;" horiz-adv-x="915" d="M111 492l18 135h676l-19 -135h-675z" />
<glyph unicode="&#x2012;" horiz-adv-x="915" d="M111 492l18 135h676l-19 -135h-675z" />
<glyph unicode="&#x2013;" horiz-adv-x="899" d="M41 492l18 135h799l-18 -135h-799z" />
<glyph unicode="&#x2014;" horiz-adv-x="1421" d="M41 492l18 135h1321l-18 -135h-1321z" />
<glyph unicode="&#x2018;" horiz-adv-x="501" d="M61 922l314 512h168l-316 -512h-166z" />
<glyph unicode="&#x2019;" horiz-adv-x="501" d="M61 922l314 512h168l-316 -512h-166z" />
<glyph unicode="&#x201a;" horiz-adv-x="501" d="M-41 -256l313 512h168l-315 -512h-166z" />
<glyph unicode="&#x201c;" horiz-adv-x="921" d="M61 922l314 512h168l-316 -512h-166zM481 922l314 512h168l-316 -512h-166z" />
<glyph unicode="&#x201d;" horiz-adv-x="921" d="M61 922l314 512h168l-316 -512h-166zM481 922l314 512h168l-316 -512h-166z" />
<glyph unicode="&#x201e;" horiz-adv-x="921" d="M-41 -256l313 512h168l-315 -512h-166zM379 -256l313 512h168l-315 -512h-166z" />
<glyph unicode="&#x2022;" horiz-adv-x="731" d="M133 592q0 55 22.5 104t59.5 86t86 59.5t102 22.5q51 0 95.5 -18.5t76 -50t50 -75.5t18.5 -93q0 -55 -22.5 -105.5t-60.5 -87.5t-87 -59.5t-102 -22.5q-51 0 -94.5 18.5t-75 50.5t-50 76t-18.5 95z" />
<glyph unicode="&#x2026;" horiz-adv-x="1511" d="M172 92q0 51 36 87t87 36t87 -36t36 -87t-36 -87t-87 -36t-87 36t-36 87zM653 92q0 51 36 87t87 36t87 -36t36 -87t-36 -87t-87 -36t-87 36t-36 87zM1135 92q0 51 35.5 87t86.5 36t87 -36t36 -87t-35.5 -87t-87.5 -36q-51 0 -86.5 36t-35.5 87z" />
<glyph unicode="&#x202f;" horiz-adv-x="405" />
<glyph unicode="&#x2039;" horiz-adv-x="755" d="M172 461l279 307h194l-295 -324l182 -290h-167z" />
<glyph unicode="&#x203a;" horiz-adv-x="755" d="M111 154l295 323l-183 291h168l193 -307l-279 -307h-194z" />
<glyph unicode="&#x205f;" horiz-adv-x="507" />
<glyph unicode="&#x20ac;" d="M37 498l18 135h181l22 170h-178l18 135h181l10 61q12 70 25.5 120t35.5 93q29 57 73 103.5t99.5 79t120 51t131.5 18.5q141 0 247.5 -69.5t158.5 -188.5l-129 -57q-33 82 -105 131t-168 49q-94 0 -174 -43t-123 -121q-16 -31 -27.5 -70.5t-21.5 -95.5l-10 -61h483 l-78 -135h-426l-22 -170h352l-76 -135h-293q-6 -47 -6 -88q0 -66 22.5 -122.5t61.5 -97t93.5 -63.5t117.5 -23q94 0 173 48.5t126 128.5l121 -66q-66 -115 -173 -180.5t-243 -65.5q-94 0 -175 32t-140 90.5t-93 139t-34 179.5q0 23 2 44t4 44h-182z" />
<glyph unicode="&#x2122;" horiz-adv-x="1804" d="M160 1298l18 136h647l-18 -136h-252l-106 -753h-144l107 753h-252zM655 545l412 899l174 -563l340 563l162 -899h-146l-90 499l-309 -512l-158 512l-227 -499h-158z" />
<glyph unicode="&#xe000;" horiz-adv-x="921" d="M0 0v922h922v-922h-922z" />
</font>
</defs>
</svg>
